<svg xmlns="http://www.w3.org/2000/svg" viewBox="0 0 1200 220" role="img" aria-labelledby="title desc">
<title id="title">Waveform for Devils and Demons</title>
<desc id="desc">A visual amplitude waveform generated from the supplied audio file.</desc>
<rect width="1200" height="220" fill="#0d0b12"/>
<g><rect x="0.00" y="71.20" width="4.27" height="77.60" rx="2.13" fill="#d7b66f" opacity="0.687"/><rect x="6.67" y="80.52" width="4.27" height="58.96" rx="2.13" fill="#e56871" opacity="0.647"/><rect x="13.33" y="76.85" width="4.27" height="66.29" rx="2.13" fill="#e56871" opacity="0.662"/><rect x="20.00" y="80.52" width="4.27" height="58.96" rx="2.13" fill="#e56871" opacity="0.647"/><rect x="26.67" y="80.52" width="4.27" height="58.96" rx="2.13" fill="#e56871" opacity="0.647"/><rect x="33.33" y="80.52" width="4.27" height="58.96" rx="2.13" fill="#e56871" opacity="0.647"/><rect x="40.00" y="80.52" width="4.27" height="58.96" rx="2.13" fill="#e56871" opacity="0.647"/><rect x="46.67" y="80.52" width="4.27" height="58.96" rx="2.13" fill="#d7b66f" opacity="0.647"/><rect x="53.33" y="79.32" width="4.27" height="61.36" rx="2.13" fill="#e56871" opacity="0.652"/><rect x="60.00" y="80.52" width="4.27" height="58.96" rx="2.13" fill="#e56871" opacity="0.647"/><rect x="66.67" y="80.52" width="4.27" height="58.96" rx="2.13" fill="#e56871" opacity="0.647"/><rect x="73.33" y="80.52" width="4.27" height="58.96" rx="2.13" fill="#e56871" opacity="0.647"/><rect x="80.00" y="26.81" width="4.27" height="166.39" rx="2.13" fill="#e56871" opacity="0.878"/><rect x="86.67" y="16.73" width="4.27" height="186.54" rx="2.13" fill="#e56871" opacity="0.921"/><rect x="93.33" y="13.13" width="4.27" height="193.74" rx="2.13" fill="#d7b66f" opacity="0.937"/><rect x="100.00" y="18.15" width="4.27" height="183.70" rx="2.13" fill="#e56871" opacity="0.915"/><rect x="106.67" y="16.47" width="4.27" height="187.05" rx="2.13" fill="#e56871" opacity="0.922"/><rect x="113.33" y="15.27" width="4.27" height="189.47" rx="2.13" fill="#e56871" opacity="0.927"/><rect x="120.00" y="13.71" width="4.27" height="192.58" rx="2.13" fill="#e56871" opacity="0.934"/><rect x="126.67" y="18.15" width="4.27" height="183.70" rx="2.13" fill="#e56871" opacity="0.915"/><rect x="133.33" y="13.40" width="4.27" height="193.21" rx="2.13" fill="#e56871" opacity="0.935"/><rect x="140.00" y="13.48" width="4.27" height="193.03" rx="2.13" fill="#d7b66f" opacity="0.935"/><rect x="146.67" y="16.07" width="4.27" height="187.86" rx="2.13" fill="#e56871" opacity="0.924"/><rect x="153.33" y="15.77" width="4.27" height="188.46" rx="2.13" fill="#e56871" opacity="0.925"/><rect x="160.00" y="11.02" width="4.27" height="197.97" rx="2.13" fill="#e56871" opacity="0.946"/><rect x="166.67" y="14.87" width="4.27" height="190.25" rx="2.13" fill="#e56871" opacity="0.929"/><rect x="173.33" y="12.38" width="4.27" height="195.24" rx="2.13" fill="#e56871" opacity="0.940"/><rect x="180.00" y="11.53" width="4.27" height="196.94" rx="2.13" fill="#e56871" opacity="0.943"/><rect x="186.67" y="15.27" width="4.27" height="189.46" rx="2.13" fill="#d7b66f" opacity="0.927"/><rect x="193.33" y="16.43" width="4.27" height="187.15" rx="2.13" fill="#e56871" opacity="0.922"/><rect x="200.00" y="13.49" width="4.27" height="193.02" rx="2.13" fill="#e56871" opacity="0.935"/><rect x="206.67" y="13.63" width="4.27" height="192.75" rx="2.13" fill="#e56871" opacity="0.934"/><rect x="213.33" y="11.42" width="4.27" height="197.17" rx="2.13" fill="#e56871" opacity="0.944"/><rect x="220.00" y="13.35" width="4.27" height="193.30" rx="2.13" fill="#e56871" opacity="0.936"/><rect x="226.67" y="11.83" width="4.27" height="196.35" rx="2.13" fill="#e56871" opacity="0.942"/><rect x="233.33" y="12.99" width="4.27" height="194.02" rx="2.13" fill="#d7b66f" opacity="0.937"/><rect x="240.00" y="13.54" width="4.27" height="192.92" rx="2.13" fill="#e56871" opacity="0.935"/><rect x="246.67" y="10.48" width="4.27" height="199.05" rx="2.13" fill="#e56871" opacity="0.948"/><rect x="253.33" y="11.97" width="4.27" height="196.07" rx="2.13" fill="#e56871" opacity="0.942"/><rect x="260.00" y="12.52" width="4.27" height="194.96" rx="2.13" fill="#e56871" opacity="0.939"/><rect x="266.67" y="11.70" width="4.27" height="196.60" rx="2.13" fill="#e56871" opacity="0.943"/><rect x="273.33" y="14.45" width="4.27" height="191.11" rx="2.13" fill="#e56871" opacity="0.931"/><rect x="280.00" y="13.85" width="4.27" height="192.30" rx="2.13" fill="#d7b66f" opacity="0.933"/><rect x="286.67" y="12.47" width="4.27" height="195.06" rx="2.13" fill="#e56871" opacity="0.939"/><rect x="293.33" y="14.18" width="4.27" height="191.63" rx="2.13" fill="#e56871" opacity="0.932"/><rect x="300.00" y="14.26" width="4.27" height="191.48" rx="2.13" fill="#e56871" opacity="0.932"/><rect x="306.67" y="11.90" width="4.27" height="196.20" rx="2.13" fill="#e56871" opacity="0.942"/><rect x="313.33" y="13.87" width="4.27" height="192.26" rx="2.13" fill="#e56871" opacity="0.933"/><rect x="320.00" y="13.87" width="4.27" height="192.26" rx="2.13" fill="#e56871" opacity="0.933"/><rect x="326.67" y="12.00" width="4.27" height="196.00" rx="2.13" fill="#d7b66f" opacity="0.941"/><rect x="333.33" y="11.09" width="4.27" height="197.81" rx="2.13" fill="#e56871" opacity="0.945"/><rect x="340.00" y="13.62" width="4.27" height="192.76" rx="2.13" fill="#e56871" opacity="0.934"/><rect x="346.67" y="16.64" width="4.27" height="186.72" rx="2.13" fill="#e56871" opacity="0.921"/><rect x="353.33" y="17.73" width="4.27" height="184.54" rx="2.13" fill="#e56871" opacity="0.917"/><rect x="360.00" y="13.19" width="4.27" height="193.61" rx="2.13" fill="#e56871" opacity="0.936"/><rect x="366.67" y="20.46" width="4.27" height="179.08" rx="2.13" fill="#e56871" opacity="0.905"/><rect x="373.33" y="13.65" width="4.27" height="192.71" rx="2.13" fill="#d7b66f" opacity="0.934"/><rect x="380.00" y="14.11" width="4.27" height="191.77" rx="2.13" fill="#e56871" opacity="0.932"/><rect x="386.67" y="14.97" width="4.27" height="190.06" rx="2.13" fill="#e56871" opacity="0.929"/><rect x="393.33" y="13.16" width="4.27" height="193.67" rx="2.13" fill="#e56871" opacity="0.936"/><rect x="400.00" y="16.97" width="4.27" height="186.07" rx="2.13" fill="#e56871" opacity="0.920"/><rect x="406.67" y="14.70" width="4.27" height="190.61" rx="2.13" fill="#e56871" opacity="0.930"/><rect x="413.33" y="16.30" width="4.27" height="187.40" rx="2.13" fill="#e56871" opacity="0.923"/><rect x="420.00" y="11.14" width="4.27" height="197.73" rx="2.13" fill="#d7b66f" opacity="0.945"/><rect x="426.67" y="12.35" width="4.27" height="195.31" rx="2.13" fill="#e56871" opacity="0.940"/><rect x="433.33" y="13.31" width="4.27" height="193.37" rx="2.13" fill="#e56871" opacity="0.936"/><rect x="440.00" y="14.17" width="4.27" height="191.65" rx="2.13" fill="#e56871" opacity="0.932"/><rect x="446.67" y="11.73" width="4.27" height="196.55" rx="2.13" fill="#e56871" opacity="0.943"/><rect x="453.33" y="15.72" width="4.27" height="188.57" rx="2.13" fill="#e56871" opacity="0.925"/><rect x="460.00" y="10.87" width="4.27" height="198.26" rx="2.13" fill="#e56871" opacity="0.946"/><rect x="466.67" y="11.44" width="4.27" height="197.11" rx="2.13" fill="#d7b66f" opacity="0.944"/><rect x="473.33" y="13.28" width="4.27" height="193.45" rx="2.13" fill="#e56871" opacity="0.936"/><rect x="480.00" y="10.02" width="4.27" height="199.96" rx="2.13" fill="#e56871" opacity="0.950"/><rect x="486.67" y="15.08" width="4.27" height="189.84" rx="2.13" fill="#e56871" opacity="0.928"/><rect x="493.33" y="14.62" width="4.27" height="190.76" rx="2.13" fill="#e56871" opacity="0.930"/><rect x="500.00" y="10.00" width="4.27" height="200.00" rx="2.13" fill="#e56871" opacity="0.950"/><rect x="506.67" y="11.45" width="4.27" height="197.10" rx="2.13" fill="#e56871" opacity="0.944"/><rect x="513.33" y="11.54" width="4.27" height="196.91" rx="2.13" fill="#d7b66f" opacity="0.943"/><rect x="520.00" y="14.24" width="4.27" height="191.51" rx="2.13" fill="#e56871" opacity="0.932"/><rect x="526.67" y="11.98" width="4.27" height="196.04" rx="2.13" fill="#e56871" opacity="0.941"/><rect x="533.33" y="13.12" width="4.27" height="193.75" rx="2.13" fill="#e56871" opacity="0.937"/><rect x="540.00" y="13.66" width="4.27" height="192.68" rx="2.13" fill="#e56871" opacity="0.934"/><rect x="546.67" y="12.71" width="4.27" height="194.59" rx="2.13" fill="#e56871" opacity="0.938"/><rect x="553.33" y="12.63" width="4.27" height="194.75" rx="2.13" fill="#e56871" opacity="0.939"/><rect x="560.00" y="19.46" width="4.27" height="181.08" rx="2.13" fill="#d7b66f" opacity="0.909"/><rect x="566.67" y="10.14" width="4.27" height="199.73" rx="2.13" fill="#e56871" opacity="0.949"/><rect x="573.33" y="15.52" width="4.27" height="188.95" rx="2.13" fill="#e56871" opacity="0.926"/><rect x="580.00" y="12.24" width="4.27" height="195.52" rx="2.13" fill="#e56871" opacity="0.940"/><rect x="586.67" y="10.00" width="4.27" height="200.00" rx="2.13" fill="#e56871" opacity="0.950"/><rect x="593.33" y="13.16" width="4.27" height="193.68" rx="2.13" fill="#e56871" opacity="0.936"/><rect x="600.00" y="14.48" width="4.27" height="191.04" rx="2.13" fill="#e56871" opacity="0.931"/><rect x="606.67" y="15.12" width="4.27" height="189.76" rx="2.13" fill="#d7b66f" opacity="0.928"/><rect x="613.33" y="14.88" width="4.27" height="190.24" rx="2.13" fill="#e56871" opacity="0.929"/><rect x="620.00" y="13.61" width="4.27" height="192.78" rx="2.13" fill="#e56871" opacity="0.934"/><rect x="626.67" y="16.58" width="4.27" height="186.85" rx="2.13" fill="#e56871" opacity="0.922"/><rect x="633.33" y="11.96" width="4.27" height="196.08" rx="2.13" fill="#e56871" opacity="0.942"/><rect x="640.00" y="13.85" width="4.27" height="192.29" rx="2.13" fill="#e56871" opacity="0.933"/><rect x="646.67" y="14.62" width="4.27" height="190.76" rx="2.13" fill="#e56871" opacity="0.930"/><rect x="653.33" y="14.44" width="4.27" height="191.12" rx="2.13" fill="#d7b66f" opacity="0.931"/><rect x="660.00" y="13.71" width="4.27" height="192.58" rx="2.13" fill="#e56871" opacity="0.934"/><rect x="666.67" y="16.95" width="4.27" height="186.10" rx="2.13" fill="#e56871" opacity="0.920"/><rect x="673.33" y="11.93" width="4.27" height="196.13" rx="2.13" fill="#e56871" opacity="0.942"/><rect x="680.00" y="14.47" width="4.27" height="191.06" rx="2.13" fill="#e56871" opacity="0.931"/><rect x="686.67" y="13.98" width="4.27" height="192.03" rx="2.13" fill="#e56871" opacity="0.933"/><rect x="693.33" y="11.78" width="4.27" height="196.43" rx="2.13" fill="#e56871" opacity="0.942"/><rect x="700.00" y="16.47" width="4.27" height="187.05" rx="2.13" fill="#d7b66f" opacity="0.922"/><rect x="706.67" y="14.53" width="4.27" height="190.94" rx="2.13" fill="#e56871" opacity="0.931"/><rect x="713.33" y="13.44" width="4.27" height="193.12" rx="2.13" fill="#e56871" opacity="0.935"/><rect x="720.00" y="12.64" width="4.27" height="194.72" rx="2.13" fill="#e56871" opacity="0.939"/><rect x="726.67" y="13.15" width="4.27" height="193.71" rx="2.13" fill="#e56871" opacity="0.936"/><rect x="733.33" y="12.60" width="4.27" height="194.81" rx="2.13" fill="#e56871" opacity="0.939"/><rect x="740.00" y="16.04" width="4.27" height="187.93" rx="2.13" fill="#e56871" opacity="0.924"/><rect x="746.67" y="12.28" width="4.27" height="195.45" rx="2.13" fill="#d7b66f" opacity="0.940"/><rect x="753.33" y="16.41" width="4.27" height="187.18" rx="2.13" fill="#e56871" opacity="0.922"/><rect x="760.00" y="10.00" width="4.27" height="200.00" rx="2.13" fill="#e56871" opacity="0.950"/><rect x="766.67" y="12.67" width="4.27" height="194.66" rx="2.13" fill="#e56871" opacity="0.939"/><rect x="773.33" y="13.56" width="4.27" height="192.89" rx="2.13" fill="#e56871" opacity="0.935"/><rect x="780.00" y="14.18" width="4.27" height="191.64" rx="2.13" fill="#e56871" opacity="0.932"/><rect x="786.67" y="13.17" width="4.27" height="193.67" rx="2.13" fill="#e56871" opacity="0.936"/><rect x="793.33" y="15.15" width="4.27" height="189.71" rx="2.13" fill="#d7b66f" opacity="0.928"/><rect x="800.00" y="10.00" width="4.27" height="200.00" rx="2.13" fill="#e56871" opacity="0.950"/><rect x="806.67" y="13.68" width="4.27" height="192.64" rx="2.13" fill="#e56871" opacity="0.934"/><rect x="813.33" y="10.68" width="4.27" height="198.64" rx="2.13" fill="#e56871" opacity="0.947"/><rect x="820.00" y="11.28" width="4.27" height="197.43" rx="2.13" fill="#e56871" opacity="0.944"/><rect x="826.67" y="12.94" width="4.27" height="194.12" rx="2.13" fill="#e56871" opacity="0.937"/><rect x="833.33" y="14.22" width="4.27" height="191.56" rx="2.13" fill="#e56871" opacity="0.932"/><rect x="840.00" y="12.77" width="4.27" height="194.46" rx="2.13" fill="#d7b66f" opacity="0.938"/><rect x="846.67" y="10.84" width="4.27" height="198.32" rx="2.13" fill="#e56871" opacity="0.946"/><rect x="853.33" y="10.92" width="4.27" height="198.16" rx="2.13" fill="#e56871" opacity="0.946"/><rect x="860.00" y="13.39" width="4.27" height="193.22" rx="2.13" fill="#e56871" opacity="0.935"/><rect x="866.67" y="18.97" width="4.27" height="182.05" rx="2.13" fill="#e56871" opacity="0.911"/><rect x="873.33" y="12.51" width="4.27" height="194.97" rx="2.13" fill="#e56871" opacity="0.939"/><rect x="880.00" y="15.43" width="4.27" height="189.14" rx="2.13" fill="#e56871" opacity="0.927"/><rect x="886.67" y="10.63" width="4.27" height="198.75" rx="2.13" fill="#d7b66f" opacity="0.947"/><rect x="893.33" y="14.19" width="4.27" height="191.62" rx="2.13" fill="#e56871" opacity="0.932"/><rect x="900.00" y="17.67" width="4.27" height="184.65" rx="2.13" fill="#e56871" opacity="0.917"/><rect x="906.67" y="12.85" width="4.27" height="194.31" rx="2.13" fill="#e56871" opacity="0.938"/><rect x="913.33" y="16.53" width="4.27" height="186.94" rx="2.13" fill="#e56871" opacity="0.922"/><rect x="920.00" y="14.38" width="4.27" height="191.25" rx="2.13" fill="#e56871" opacity="0.931"/><rect x="926.67" y="11.77" width="4.27" height="196.46" rx="2.13" fill="#e56871" opacity="0.942"/><rect x="933.33" y="13.82" width="4.27" height="192.36" rx="2.13" fill="#d7b66f" opacity="0.934"/><rect x="940.00" y="17.13" width="4.27" height="185.73" rx="2.13" fill="#e56871" opacity="0.919"/><rect x="946.67" y="12.36" width="4.27" height="195.29" rx="2.13" fill="#e56871" opacity="0.940"/><rect x="953.33" y="19.11" width="4.27" height="181.78" rx="2.13" fill="#e56871" opacity="0.911"/><rect x="960.00" y="13.28" width="4.27" height="193.45" rx="2.13" fill="#e56871" opacity="0.936"/><rect x="966.67" y="13.98" width="4.27" height="192.03" rx="2.13" fill="#e56871" opacity="0.933"/><rect x="973.33" y="11.02" width="4.27" height="197.96" rx="2.13" fill="#e56871" opacity="0.946"/><rect x="980.00" y="14.11" width="4.27" height="191.78" rx="2.13" fill="#d7b66f" opacity="0.932"/><rect x="986.67" y="17.11" width="4.27" height="185.79" rx="2.13" fill="#e56871" opacity="0.919"/><rect x="993.33" y="12.58" width="4.27" height="194.84" rx="2.13" fill="#e56871" opacity="0.939"/><rect x="1000.00" y="17.86" width="4.27" height="184.29" rx="2.13" fill="#e56871" opacity="0.916"/><rect x="1006.67" y="15.69" width="4.27" height="188.63" rx="2.13" fill="#e56871" opacity="0.926"/><rect x="1013.33" y="11.44" width="4.27" height="197.11" rx="2.13" fill="#e56871" opacity="0.944"/><rect x="1020.00" y="13.88" width="4.27" height="192.24" rx="2.13" fill="#e56871" opacity="0.933"/><rect x="1026.67" y="21.79" width="4.27" height="176.43" rx="2.13" fill="#d7b66f" opacity="0.899"/><rect x="1033.33" y="19.11" width="4.27" height="181.78" rx="2.13" fill="#e56871" opacity="0.911"/><rect x="1040.00" y="27.67" width="4.27" height="164.67" rx="2.13" fill="#e56871" opacity="0.874"/><rect x="1046.67" y="26.46" width="4.27" height="167.08" rx="2.13" fill="#e56871" opacity="0.879"/><rect x="1053.33" y="23.46" width="4.27" height="173.09" rx="2.13" fill="#e56871" opacity="0.892"/><rect x="1060.00" y="19.82" width="4.27" height="180.36" rx="2.13" fill="#e56871" opacity="0.908"/><rect x="1066.67" y="24.05" width="4.27" height="171.90" rx="2.13" fill="#e56871" opacity="0.890"/><rect x="1073.33" y="27.95" width="4.27" height="164.09" rx="2.13" fill="#d7b66f" opacity="0.873"/><rect x="1080.00" y="23.83" width="4.27" height="172.34" rx="2.13" fill="#e56871" opacity="0.890"/><rect x="1086.67" y="25.55" width="4.27" height="168.91" rx="2.13" fill="#e56871" opacity="0.883"/><rect x="1093.33" y="26.56" width="4.27" height="166.88" rx="2.13" fill="#e56871" opacity="0.879"/><rect x="1100.00" y="17.75" width="4.27" height="184.51" rx="2.13" fill="#e56871" opacity="0.917"/><rect x="1106.67" y="24.64" width="4.27" height="170.72" rx="2.13" fill="#e56871" opacity="0.887"/><rect x="1113.33" y="39.18" width="4.27" height="141.65" rx="2.13" fill="#e56871" opacity="0.824"/><rect x="1120.00" y="56.76" width="4.27" height="106.47" rx="2.13" fill="#d7b66f" opacity="0.749"/><rect x="1126.67" y="60.37" width="4.27" height="99.27" rx="2.13" fill="#e56871" opacity="0.733"/><rect x="1133.33" y="55.67" width="4.27" height="108.67" rx="2.13" fill="#e56871" opacity="0.754"/><rect x="1140.00" y="55.46" width="4.27" height="109.09" rx="2.13" fill="#e56871" opacity="0.754"/><rect x="1146.67" y="58.75" width="4.27" height="102.51" rx="2.13" fill="#e56871" opacity="0.740"/><rect x="1153.33" y="66.22" width="4.27" height="87.56" rx="2.13" fill="#e56871" opacity="0.708"/><rect x="1160.00" y="65.89" width="4.27" height="88.21" rx="2.13" fill="#e56871" opacity="0.710"/><rect x="1166.67" y="58.47" width="4.27" height="103.07" rx="2.13" fill="#d7b66f" opacity="0.741"/><rect x="1173.33" y="66.26" width="4.27" height="87.48" rx="2.13" fill="#e56871" opacity="0.708"/><rect x="1180.00" y="61.85" width="4.27" height="96.30" rx="2.13" fill="#e56871" opacity="0.727"/><rect x="1186.67" y="53.21" width="4.27" height="113.57" rx="2.13" fill="#e56871" opacity="0.764"/><rect x="1193.33" y="79.78" width="4.27" height="60.44" rx="2.13" fill="#e56871" opacity="0.650"/></g>
</svg>