<svg xmlns="http://www.w3.org/2000/svg" viewBox="0 0 1200 220" role="img" aria-labelledby="title desc">
<title id="title">Waveform for I Hate The Rain</title>
<desc id="desc">A visual amplitude waveform generated from the supplied audio file.</desc>
<rect width="1200" height="220" fill="#0d0b12"/>
<g><rect x="0.00" y="34.70" width="4.28" height="150.60" rx="2.14" fill="#d7b66f" opacity="0.839"/><rect x="6.68" y="31.32" width="4.28" height="157.36" rx="2.14" fill="#8fb4d5" opacity="0.854"/><rect x="13.36" y="31.48" width="4.28" height="157.05" rx="2.14" fill="#8fb4d5" opacity="0.853"/><rect x="20.04" y="59.48" width="4.28" height="101.04" rx="2.14" fill="#8fb4d5" opacity="0.727"/><rect x="26.72" y="43.80" width="4.28" height="132.40" rx="2.14" fill="#8fb4d5" opacity="0.798"/><rect x="33.40" y="33.83" width="4.28" height="152.34" rx="2.14" fill="#8fb4d5" opacity="0.843"/><rect x="40.08" y="35.84" width="4.28" height="148.32" rx="2.14" fill="#8fb4d5" opacity="0.834"/><rect x="46.76" y="52.03" width="4.28" height="115.95" rx="2.14" fill="#d7b66f" opacity="0.761"/><rect x="53.44" y="41.39" width="4.28" height="137.23" rx="2.14" fill="#8fb4d5" opacity="0.809"/><rect x="60.12" y="52.02" width="4.28" height="115.96" rx="2.14" fill="#8fb4d5" opacity="0.761"/><rect x="66.80" y="19.01" width="4.28" height="181.97" rx="2.14" fill="#8fb4d5" opacity="0.909"/><rect x="73.48" y="54.36" width="4.28" height="111.28" rx="2.14" fill="#8fb4d5" opacity="0.750"/><rect x="80.16" y="43.28" width="4.28" height="133.45" rx="2.14" fill="#8fb4d5" opacity="0.800"/><rect x="86.84" y="38.37" width="4.28" height="143.25" rx="2.14" fill="#8fb4d5" opacity="0.822"/><rect x="93.52" y="23.32" width="4.28" height="173.35" rx="2.14" fill="#d7b66f" opacity="0.890"/><rect x="100.20" y="74.36" width="4.28" height="71.27" rx="2.14" fill="#8fb4d5" opacity="0.660"/><rect x="106.88" y="41.76" width="4.28" height="136.47" rx="2.14" fill="#8fb4d5" opacity="0.807"/><rect x="113.56" y="35.67" width="4.28" height="148.65" rx="2.14" fill="#8fb4d5" opacity="0.834"/><rect x="120.24" y="10.00" width="4.28" height="200.00" rx="2.14" fill="#8fb4d5" opacity="0.950"/><rect x="126.92" y="45.19" width="4.28" height="129.63" rx="2.14" fill="#8fb4d5" opacity="0.792"/><rect x="133.60" y="37.39" width="4.28" height="145.22" rx="2.14" fill="#8fb4d5" opacity="0.827"/><rect x="140.28" y="37.50" width="4.28" height="145.00" rx="2.14" fill="#d7b66f" opacity="0.826"/><rect x="146.96" y="11.84" width="4.28" height="196.32" rx="2.14" fill="#8fb4d5" opacity="0.942"/><rect x="153.64" y="38.92" width="4.28" height="142.16" rx="2.14" fill="#8fb4d5" opacity="0.820"/><rect x="160.32" y="47.51" width="4.28" height="124.98" rx="2.14" fill="#8fb4d5" opacity="0.781"/><rect x="167.00" y="35.34" width="4.28" height="149.32" rx="2.14" fill="#8fb4d5" opacity="0.836"/><rect x="173.68" y="12.05" width="4.28" height="195.90" rx="2.14" fill="#8fb4d5" opacity="0.941"/><rect x="180.36" y="39.81" width="4.28" height="140.38" rx="2.14" fill="#8fb4d5" opacity="0.816"/><rect x="187.04" y="37.08" width="4.28" height="145.85" rx="2.14" fill="#d7b66f" opacity="0.828"/><rect x="193.72" y="37.81" width="4.28" height="144.39" rx="2.14" fill="#8fb4d5" opacity="0.825"/><rect x="200.40" y="16.10" width="4.28" height="187.80" rx="2.14" fill="#8fb4d5" opacity="0.923"/><rect x="207.08" y="40.68" width="4.28" height="138.64" rx="2.14" fill="#8fb4d5" opacity="0.812"/><rect x="213.76" y="33.46" width="4.28" height="153.09" rx="2.14" fill="#8fb4d5" opacity="0.844"/><rect x="220.44" y="44.11" width="4.28" height="131.79" rx="2.14" fill="#8fb4d5" opacity="0.797"/><rect x="227.12" y="13.71" width="4.28" height="192.59" rx="2.14" fill="#8fb4d5" opacity="0.933"/><rect x="233.80" y="41.70" width="4.28" height="136.59" rx="2.14" fill="#d7b66f" opacity="0.807"/><rect x="240.48" y="24.44" width="4.28" height="171.12" rx="2.14" fill="#8fb4d5" opacity="0.885"/><rect x="247.16" y="46.36" width="4.28" height="127.29" rx="2.14" fill="#8fb4d5" opacity="0.786"/><rect x="253.84" y="16.09" width="4.28" height="187.82" rx="2.14" fill="#8fb4d5" opacity="0.923"/><rect x="260.52" y="30.54" width="4.28" height="158.91" rx="2.14" fill="#8fb4d5" opacity="0.858"/><rect x="267.20" y="40.71" width="4.28" height="138.57" rx="2.14" fill="#8fb4d5" opacity="0.812"/><rect x="273.88" y="39.60" width="4.28" height="140.81" rx="2.14" fill="#8fb4d5" opacity="0.817"/><rect x="280.56" y="24.19" width="4.28" height="171.62" rx="2.14" fill="#d7b66f" opacity="0.886"/><rect x="287.24" y="21.62" width="4.28" height="176.75" rx="2.14" fill="#8fb4d5" opacity="0.898"/><rect x="293.92" y="43.81" width="4.28" height="132.38" rx="2.14" fill="#8fb4d5" opacity="0.798"/><rect x="300.60" y="32.29" width="4.28" height="155.41" rx="2.14" fill="#8fb4d5" opacity="0.850"/><rect x="307.28" y="26.51" width="4.28" height="166.98" rx="2.14" fill="#8fb4d5" opacity="0.876"/><rect x="313.96" y="18.94" width="4.28" height="182.12" rx="2.14" fill="#8fb4d5" opacity="0.910"/><rect x="320.64" y="49.60" width="4.28" height="120.80" rx="2.14" fill="#8fb4d5" opacity="0.772"/><rect x="327.32" y="39.67" width="4.28" height="140.66" rx="2.14" fill="#d7b66f" opacity="0.816"/><rect x="334.00" y="44.01" width="4.28" height="131.98" rx="2.14" fill="#8fb4d5" opacity="0.797"/><rect x="340.68" y="38.05" width="4.28" height="143.89" rx="2.14" fill="#8fb4d5" opacity="0.824"/><rect x="347.36" y="69.30" width="4.28" height="81.40" rx="2.14" fill="#8fb4d5" opacity="0.683"/><rect x="354.04" y="44.88" width="4.28" height="130.25" rx="2.14" fill="#8fb4d5" opacity="0.793"/><rect x="360.72" y="54.11" width="4.28" height="111.78" rx="2.14" fill="#8fb4d5" opacity="0.752"/><rect x="367.40" y="26.92" width="4.28" height="166.17" rx="2.14" fill="#8fb4d5" opacity="0.874"/><rect x="374.08" y="73.04" width="4.28" height="73.91" rx="2.14" fill="#d7b66f" opacity="0.666"/><rect x="380.76" y="52.28" width="4.28" height="115.43" rx="2.14" fill="#8fb4d5" opacity="0.760"/><rect x="387.44" y="62.88" width="4.28" height="94.25" rx="2.14" fill="#8fb4d5" opacity="0.712"/><rect x="394.12" y="32.77" width="4.28" height="154.47" rx="2.14" fill="#8fb4d5" opacity="0.848"/><rect x="400.80" y="50.22" width="4.28" height="119.55" rx="2.14" fill="#8fb4d5" opacity="0.769"/><rect x="407.48" y="34.36" width="4.28" height="151.29" rx="2.14" fill="#8fb4d5" opacity="0.840"/><rect x="414.16" y="62.16" width="4.28" height="95.69" rx="2.14" fill="#8fb4d5" opacity="0.715"/><rect x="420.84" y="31.66" width="4.28" height="156.68" rx="2.14" fill="#d7b66f" opacity="0.853"/><rect x="427.52" y="73.22" width="4.28" height="73.56" rx="2.14" fill="#8fb4d5" opacity="0.666"/><rect x="434.20" y="48.34" width="4.28" height="123.32" rx="2.14" fill="#8fb4d5" opacity="0.777"/><rect x="440.88" y="35.99" width="4.28" height="148.02" rx="2.14" fill="#8fb4d5" opacity="0.833"/><rect x="447.56" y="12.14" width="4.28" height="195.72" rx="2.14" fill="#8fb4d5" opacity="0.940"/><rect x="454.24" y="39.87" width="4.28" height="140.26" rx="2.14" fill="#8fb4d5" opacity="0.816"/><rect x="460.92" y="36.61" width="4.28" height="146.79" rx="2.14" fill="#8fb4d5" opacity="0.830"/><rect x="467.60" y="36.68" width="4.28" height="146.64" rx="2.14" fill="#d7b66f" opacity="0.830"/><rect x="474.28" y="11.60" width="4.28" height="196.79" rx="2.14" fill="#8fb4d5" opacity="0.943"/><rect x="480.96" y="39.31" width="4.28" height="141.38" rx="2.14" fill="#8fb4d5" opacity="0.818"/><rect x="487.64" y="47.36" width="4.28" height="125.28" rx="2.14" fill="#8fb4d5" opacity="0.782"/><rect x="494.32" y="36.34" width="4.28" height="147.32" rx="2.14" fill="#8fb4d5" opacity="0.831"/><rect x="501.00" y="12.41" width="4.28" height="195.19" rx="2.14" fill="#8fb4d5" opacity="0.939"/><rect x="507.68" y="46.67" width="4.28" height="126.66" rx="2.14" fill="#8fb4d5" opacity="0.785"/><rect x="514.36" y="27.99" width="4.28" height="164.01" rx="2.14" fill="#d7b66f" opacity="0.869"/><rect x="521.04" y="46.35" width="4.28" height="127.30" rx="2.14" fill="#8fb4d5" opacity="0.786"/><rect x="527.72" y="14.96" width="4.28" height="190.09" rx="2.14" fill="#8fb4d5" opacity="0.928"/><rect x="534.40" y="32.94" width="4.28" height="154.11" rx="2.14" fill="#8fb4d5" opacity="0.847"/><rect x="541.08" y="31.81" width="4.28" height="156.37" rx="2.14" fill="#8fb4d5" opacity="0.852"/><rect x="547.76" y="44.54" width="4.28" height="130.91" rx="2.14" fill="#8fb4d5" opacity="0.795"/><rect x="554.44" y="13.37" width="4.28" height="193.26" rx="2.14" fill="#8fb4d5" opacity="0.935"/><rect x="561.12" y="41.43" width="4.28" height="137.13" rx="2.14" fill="#d7b66f" opacity="0.809"/><rect x="567.80" y="26.74" width="4.28" height="166.52" rx="2.14" fill="#8fb4d5" opacity="0.875"/><rect x="574.48" y="43.06" width="4.28" height="133.88" rx="2.14" fill="#8fb4d5" opacity="0.801"/><rect x="581.16" y="22.91" width="4.28" height="174.18" rx="2.14" fill="#8fb4d5" opacity="0.892"/><rect x="587.84" y="20.97" width="4.28" height="178.05" rx="2.14" fill="#8fb4d5" opacity="0.901"/><rect x="594.52" y="60.29" width="4.28" height="99.42" rx="2.14" fill="#8fb4d5" opacity="0.724"/><rect x="601.20" y="32.39" width="4.28" height="155.22" rx="2.14" fill="#8fb4d5" opacity="0.849"/><rect x="607.88" y="25.73" width="4.28" height="168.54" rx="2.14" fill="#d7b66f" opacity="0.879"/><rect x="614.56" y="19.20" width="4.28" height="181.61" rx="2.14" fill="#8fb4d5" opacity="0.909"/><rect x="621.24" y="40.88" width="4.28" height="138.24" rx="2.14" fill="#8fb4d5" opacity="0.811"/><rect x="627.92" y="34.66" width="4.28" height="150.68" rx="2.14" fill="#8fb4d5" opacity="0.839"/><rect x="634.60" y="25.13" width="4.28" height="169.74" rx="2.14" fill="#8fb4d5" opacity="0.882"/><rect x="641.28" y="19.07" width="4.28" height="181.85" rx="2.14" fill="#8fb4d5" opacity="0.909"/><rect x="647.96" y="49.21" width="4.28" height="121.59" rx="2.14" fill="#8fb4d5" opacity="0.774"/><rect x="654.64" y="38.30" width="4.28" height="143.40" rx="2.14" fill="#d7b66f" opacity="0.823"/><rect x="661.32" y="60.82" width="4.28" height="98.37" rx="2.14" fill="#8fb4d5" opacity="0.721"/><rect x="668.00" y="30.84" width="4.28" height="158.32" rx="2.14" fill="#8fb4d5" opacity="0.856"/><rect x="674.68" y="75.35" width="4.28" height="69.30" rx="2.14" fill="#8fb4d5" opacity="0.656"/><rect x="681.36" y="48.18" width="4.28" height="123.64" rx="2.14" fill="#8fb4d5" opacity="0.778"/><rect x="688.04" y="57.30" width="4.28" height="105.40" rx="2.14" fill="#8fb4d5" opacity="0.737"/><rect x="694.72" y="33.22" width="4.28" height="153.56" rx="2.14" fill="#8fb4d5" opacity="0.846"/><rect x="701.40" y="68.24" width="4.28" height="83.52" rx="2.14" fill="#d7b66f" opacity="0.688"/><rect x="708.08" y="58.40" width="4.28" height="103.20" rx="2.14" fill="#8fb4d5" opacity="0.732"/><rect x="714.76" y="49.05" width="4.28" height="121.90" rx="2.14" fill="#8fb4d5" opacity="0.774"/><rect x="721.44" y="29.09" width="4.28" height="161.82" rx="2.14" fill="#8fb4d5" opacity="0.864"/><rect x="728.12" y="42.20" width="4.28" height="135.60" rx="2.14" fill="#8fb4d5" opacity="0.805"/><rect x="734.80" y="50.46" width="4.28" height="119.07" rx="2.14" fill="#8fb4d5" opacity="0.768"/><rect x="741.48" y="63.07" width="4.28" height="93.86" rx="2.14" fill="#8fb4d5" opacity="0.711"/><rect x="748.16" y="22.72" width="4.28" height="174.56" rx="2.14" fill="#d7b66f" opacity="0.893"/><rect x="754.84" y="67.48" width="4.28" height="85.04" rx="2.14" fill="#8fb4d5" opacity="0.691"/><rect x="761.52" y="33.09" width="4.28" height="153.82" rx="2.14" fill="#8fb4d5" opacity="0.846"/><rect x="768.20" y="39.49" width="4.28" height="141.01" rx="2.14" fill="#8fb4d5" opacity="0.817"/><rect x="774.88" y="28.08" width="4.28" height="163.85" rx="2.14" fill="#8fb4d5" opacity="0.869"/><rect x="781.56" y="49.43" width="4.28" height="121.15" rx="2.14" fill="#8fb4d5" opacity="0.773"/><rect x="788.24" y="17.85" width="4.28" height="184.30" rx="2.14" fill="#8fb4d5" opacity="0.915"/><rect x="794.92" y="37.30" width="4.28" height="145.39" rx="2.14" fill="#d7b66f" opacity="0.827"/><rect x="801.60" y="33.19" width="4.28" height="153.62" rx="2.14" fill="#8fb4d5" opacity="0.846"/><rect x="808.28" y="64.29" width="4.28" height="91.41" rx="2.14" fill="#8fb4d5" opacity="0.706"/><rect x="814.96" y="24.97" width="4.28" height="170.06" rx="2.14" fill="#8fb4d5" opacity="0.883"/><rect x="821.64" y="51.96" width="4.28" height="116.08" rx="2.14" fill="#8fb4d5" opacity="0.761"/><rect x="828.32" y="28.79" width="4.28" height="162.42" rx="2.14" fill="#8fb4d5" opacity="0.865"/><rect x="835.00" y="49.20" width="4.28" height="121.60" rx="2.14" fill="#8fb4d5" opacity="0.774"/><rect x="841.68" y="14.07" width="4.28" height="191.86" rx="2.14" fill="#d7b66f" opacity="0.932"/><rect x="848.36" y="40.86" width="4.28" height="138.27" rx="2.14" fill="#8fb4d5" opacity="0.811"/><rect x="855.04" y="36.08" width="4.28" height="147.84" rx="2.14" fill="#8fb4d5" opacity="0.833"/><rect x="861.72" y="56.54" width="4.28" height="106.93" rx="2.14" fill="#8fb4d5" opacity="0.741"/><rect x="868.40" y="35.14" width="4.28" height="149.72" rx="2.14" fill="#8fb4d5" opacity="0.837"/><rect x="875.08" y="45.15" width="4.28" height="129.70" rx="2.14" fill="#8fb4d5" opacity="0.792"/><rect x="881.76" y="28.27" width="4.28" height="163.46" rx="2.14" fill="#8fb4d5" opacity="0.868"/><rect x="888.44" y="48.88" width="4.28" height="122.24" rx="2.14" fill="#d7b66f" opacity="0.775"/><rect x="895.12" y="21.89" width="4.28" height="176.21" rx="2.14" fill="#8fb4d5" opacity="0.896"/><rect x="901.80" y="27.67" width="4.28" height="164.66" rx="2.14" fill="#8fb4d5" opacity="0.870"/><rect x="908.48" y="37.43" width="4.28" height="145.14" rx="2.14" fill="#8fb4d5" opacity="0.827"/><rect x="915.16" y="32.07" width="4.28" height="155.86" rx="2.14" fill="#8fb4d5" opacity="0.851"/><rect x="921.84" y="42.50" width="4.28" height="135.01" rx="2.14" fill="#8fb4d5" opacity="0.804"/><rect x="928.52" y="31.17" width="4.28" height="157.67" rx="2.14" fill="#8fb4d5" opacity="0.855"/><rect x="935.20" y="37.06" width="4.28" height="145.88" rx="2.14" fill="#d7b66f" opacity="0.828"/><rect x="941.88" y="32.99" width="4.28" height="154.02" rx="2.14" fill="#8fb4d5" opacity="0.847"/><rect x="948.56" y="23.10" width="4.28" height="173.79" rx="2.14" fill="#8fb4d5" opacity="0.891"/><rect x="955.24" y="23.83" width="4.28" height="172.34" rx="2.14" fill="#8fb4d5" opacity="0.888"/><rect x="961.92" y="41.15" width="4.28" height="137.70" rx="2.14" fill="#8fb4d5" opacity="0.810"/><rect x="968.60" y="32.14" width="4.28" height="155.72" rx="2.14" fill="#8fb4d5" opacity="0.850"/><rect x="975.28" y="60.94" width="4.28" height="98.11" rx="2.14" fill="#8fb4d5" opacity="0.721"/><rect x="981.96" y="95.81" width="4.28" height="28.39" rx="2.14" fill="#d7b66f" opacity="0.564"/><rect x="988.64" y="103.32" width="4.28" height="13.37" rx="2.14" fill="#8fb4d5" opacity="0.530"/><rect x="995.32" y="104.24" width="4.28" height="11.53" rx="2.14" fill="#8fb4d5" opacity="0.526"/><rect x="1002.00" y="81.53" width="4.28" height="56.93" rx="2.14" fill="#8fb4d5" opacity="0.628"/><rect x="1008.68" y="106.12" width="4.28" height="7.76" rx="2.14" fill="#8fb4d5" opacity="0.517"/><rect x="1015.36" y="56.78" width="4.28" height="106.43" rx="2.14" fill="#8fb4d5" opacity="0.739"/><rect x="1022.04" y="106.38" width="4.28" height="7.24" rx="2.14" fill="#8fb4d5" opacity="0.516"/><rect x="1028.72" y="91.43" width="4.28" height="37.14" rx="2.14" fill="#d7b66f" opacity="0.584"/><rect x="1035.40" y="49.92" width="4.28" height="120.16" rx="2.14" fill="#8fb4d5" opacity="0.770"/><rect x="1042.08" y="89.77" width="4.28" height="40.46" rx="2.14" fill="#8fb4d5" opacity="0.591"/><rect x="1048.76" y="82.01" width="4.28" height="55.99" rx="2.14" fill="#8fb4d5" opacity="0.626"/><rect x="1055.44" y="71.32" width="4.28" height="77.36" rx="2.14" fill="#8fb4d5" opacity="0.674"/><rect x="1062.12" y="104.45" width="4.28" height="11.10" rx="2.14" fill="#8fb4d5" opacity="0.525"/><rect x="1068.80" y="88.35" width="4.28" height="43.31" rx="2.14" fill="#8fb4d5" opacity="0.597"/><rect x="1075.48" y="77.11" width="4.28" height="65.77" rx="2.14" fill="#d7b66f" opacity="0.648"/><rect x="1082.16" y="97.02" width="4.28" height="25.96" rx="2.14" fill="#8fb4d5" opacity="0.558"/><rect x="1088.84" y="26.87" width="4.28" height="166.26" rx="2.14" fill="#8fb4d5" opacity="0.874"/><rect x="1095.52" y="73.77" width="4.28" height="72.45" rx="2.14" fill="#8fb4d5" opacity="0.663"/><rect x="1102.20" y="106.51" width="4.28" height="6.98" rx="2.14" fill="#8fb4d5" opacity="0.516"/><rect x="1108.88" y="56.59" width="4.28" height="106.82" rx="2.14" fill="#8fb4d5" opacity="0.740"/><rect x="1115.56" y="84.06" width="4.28" height="51.87" rx="2.14" fill="#8fb4d5" opacity="0.617"/><rect x="1122.24" y="105.77" width="4.28" height="8.45" rx="2.14" fill="#d7b66f" opacity="0.519"/><rect x="1128.92" y="25.85" width="4.28" height="168.30" rx="2.14" fill="#8fb4d5" opacity="0.879"/><rect x="1135.60" y="57.93" width="4.28" height="104.13" rx="2.14" fill="#8fb4d5" opacity="0.734"/><rect x="1142.28" y="61.72" width="4.28" height="96.55" rx="2.14" fill="#8fb4d5" opacity="0.717"/><rect x="1148.96" y="85.75" width="4.28" height="48.50" rx="2.14" fill="#8fb4d5" opacity="0.609"/><rect x="1155.64" y="93.36" width="4.28" height="33.29" rx="2.14" fill="#8fb4d5" opacity="0.575"/><rect x="1162.32" y="45.14" width="4.28" height="129.72" rx="2.14" fill="#8fb4d5" opacity="0.792"/><rect x="1169.00" y="65.80" width="4.28" height="88.40" rx="2.14" fill="#d7b66f" opacity="0.699"/><rect x="1175.68" y="97.14" width="4.28" height="25.73" rx="2.14" fill="#8fb4d5" opacity="0.558"/><rect x="1182.36" y="84.53" width="4.28" height="50.94" rx="2.14" fill="#8fb4d5" opacity="0.615"/><rect x="1189.04" y="69.54" width="4.28" height="80.92" rx="2.14" fill="#8fb4d5" opacity="0.682"/><rect x="1195.72" y="99.86" width="4.28" height="20.28" rx="2.14" fill="#8fb4d5" opacity="0.546"/></g>
</svg>