<svg xmlns="http://www.w3.org/2000/svg" viewBox="0 0 1200 220" role="img" aria-labelledby="title desc">
<title id="title">Waveform for Snp</title>
<desc id="desc">A visual amplitude waveform generated from the supplied audio file.</desc>
<rect width="1200" height="220" fill="#0d0b12"/>
<g><rect x="0.00" y="90.72" width="4.28" height="38.56" rx="2.14" fill="#c05a86" opacity="0.587"/><rect x="6.68" y="86.42" width="4.28" height="47.16" rx="2.14" fill="#d7b66f" opacity="0.606"/><rect x="13.36" y="85.27" width="4.28" height="49.47" rx="2.14" fill="#d7b66f" opacity="0.611"/><rect x="20.04" y="89.81" width="4.28" height="40.37" rx="2.14" fill="#d7b66f" opacity="0.591"/><rect x="26.72" y="86.72" width="4.28" height="46.55" rx="2.14" fill="#d7b66f" opacity="0.605"/><rect x="33.40" y="67.14" width="4.28" height="85.71" rx="2.14" fill="#d7b66f" opacity="0.693"/><rect x="40.08" y="44.69" width="4.28" height="130.62" rx="2.14" fill="#d7b66f" opacity="0.794"/><rect x="46.76" y="12.53" width="4.28" height="194.95" rx="2.14" fill="#c05a86" opacity="0.939"/><rect x="53.44" y="28.10" width="4.28" height="163.80" rx="2.14" fill="#d7b66f" opacity="0.869"/><rect x="60.12" y="28.93" width="4.28" height="162.14" rx="2.14" fill="#d7b66f" opacity="0.865"/><rect x="66.80" y="15.03" width="4.28" height="189.94" rx="2.14" fill="#d7b66f" opacity="0.927"/><rect x="73.48" y="22.37" width="4.28" height="175.25" rx="2.14" fill="#d7b66f" opacity="0.894"/><rect x="80.16" y="30.30" width="4.28" height="159.41" rx="2.14" fill="#d7b66f" opacity="0.859"/><rect x="86.84" y="10.00" width="4.28" height="200.00" rx="2.14" fill="#d7b66f" opacity="0.950"/><rect x="93.52" y="18.94" width="4.28" height="182.13" rx="2.14" fill="#c05a86" opacity="0.910"/><rect x="100.20" y="34.71" width="4.28" height="150.58" rx="2.14" fill="#d7b66f" opacity="0.839"/><rect x="106.88" y="15.32" width="4.28" height="189.36" rx="2.14" fill="#d7b66f" opacity="0.926"/><rect x="113.56" y="16.69" width="4.28" height="186.62" rx="2.14" fill="#d7b66f" opacity="0.920"/><rect x="120.24" y="21.22" width="4.28" height="177.56" rx="2.14" fill="#d7b66f" opacity="0.900"/><rect x="126.92" y="18.83" width="4.28" height="182.34" rx="2.14" fill="#d7b66f" opacity="0.910"/><rect x="133.60" y="18.54" width="4.28" height="182.92" rx="2.14" fill="#d7b66f" opacity="0.912"/><rect x="140.28" y="28.49" width="4.28" height="163.03" rx="2.14" fill="#c05a86" opacity="0.867"/><rect x="146.96" y="12.73" width="4.28" height="194.54" rx="2.14" fill="#d7b66f" opacity="0.938"/><rect x="153.64" y="25.00" width="4.28" height="169.99" rx="2.14" fill="#d7b66f" opacity="0.882"/><rect x="160.32" y="22.23" width="4.28" height="175.55" rx="2.14" fill="#d7b66f" opacity="0.895"/><rect x="167.00" y="16.72" width="4.28" height="186.55" rx="2.14" fill="#d7b66f" opacity="0.920"/><rect x="173.68" y="23.84" width="4.28" height="172.32" rx="2.14" fill="#d7b66f" opacity="0.888"/><rect x="180.36" y="21.48" width="4.28" height="177.04" rx="2.14" fill="#d7b66f" opacity="0.898"/><rect x="187.04" y="18.92" width="4.28" height="182.17" rx="2.14" fill="#c05a86" opacity="0.910"/><rect x="193.72" y="37.27" width="4.28" height="145.46" rx="2.14" fill="#d7b66f" opacity="0.827"/><rect x="200.40" y="18.45" width="4.28" height="183.10" rx="2.14" fill="#d7b66f" opacity="0.912"/><rect x="207.08" y="19.90" width="4.28" height="180.20" rx="2.14" fill="#d7b66f" opacity="0.905"/><rect x="213.76" y="37.43" width="4.28" height="145.15" rx="2.14" fill="#d7b66f" opacity="0.827"/><rect x="220.44" y="16.83" width="4.28" height="186.34" rx="2.14" fill="#d7b66f" opacity="0.919"/><rect x="227.12" y="36.10" width="4.28" height="147.80" rx="2.14" fill="#d7b66f" opacity="0.833"/><rect x="233.80" y="71.82" width="4.28" height="76.37" rx="2.14" fill="#c05a86" opacity="0.672"/><rect x="240.48" y="67.01" width="4.28" height="85.99" rx="2.14" fill="#d7b66f" opacity="0.693"/><rect x="247.16" y="52.01" width="4.28" height="115.98" rx="2.14" fill="#d7b66f" opacity="0.761"/><rect x="253.84" y="69.29" width="4.28" height="81.43" rx="2.14" fill="#d7b66f" opacity="0.683"/><rect x="260.52" y="78.77" width="4.28" height="62.45" rx="2.14" fill="#d7b66f" opacity="0.641"/><rect x="267.20" y="50.60" width="4.28" height="118.81" rx="2.14" fill="#d7b66f" opacity="0.767"/><rect x="273.88" y="35.97" width="4.28" height="148.05" rx="2.14" fill="#d7b66f" opacity="0.833"/><rect x="280.56" y="22.37" width="4.28" height="175.26" rx="2.14" fill="#c05a86" opacity="0.894"/><rect x="287.24" y="26.52" width="4.28" height="166.96" rx="2.14" fill="#d7b66f" opacity="0.876"/><rect x="293.92" y="26.60" width="4.28" height="166.81" rx="2.14" fill="#d7b66f" opacity="0.875"/><rect x="300.60" y="15.22" width="4.28" height="189.55" rx="2.14" fill="#d7b66f" opacity="0.926"/><rect x="307.28" y="22.53" width="4.28" height="174.94" rx="2.14" fill="#d7b66f" opacity="0.894"/><rect x="313.96" y="26.78" width="4.28" height="166.43" rx="2.14" fill="#d7b66f" opacity="0.874"/><rect x="320.64" y="13.59" width="4.28" height="192.81" rx="2.14" fill="#d7b66f" opacity="0.934"/><rect x="327.32" y="32.41" width="4.28" height="155.19" rx="2.14" fill="#c05a86" opacity="0.849"/><rect x="334.00" y="24.14" width="4.28" height="171.72" rx="2.14" fill="#d7b66f" opacity="0.886"/><rect x="340.68" y="14.08" width="4.28" height="191.84" rx="2.14" fill="#d7b66f" opacity="0.932"/><rect x="347.36" y="28.99" width="4.28" height="162.02" rx="2.14" fill="#d7b66f" opacity="0.865"/><rect x="354.04" y="18.12" width="4.28" height="183.77" rx="2.14" fill="#d7b66f" opacity="0.913"/><rect x="360.72" y="19.56" width="4.28" height="180.88" rx="2.14" fill="#d7b66f" opacity="0.907"/><rect x="367.40" y="28.63" width="4.28" height="162.74" rx="2.14" fill="#d7b66f" opacity="0.866"/><rect x="374.08" y="16.84" width="4.28" height="186.31" rx="2.14" fill="#c05a86" opacity="0.919"/><rect x="380.76" y="18.22" width="4.28" height="183.55" rx="2.14" fill="#d7b66f" opacity="0.913"/><rect x="387.44" y="29.52" width="4.28" height="160.96" rx="2.14" fill="#d7b66f" opacity="0.862"/><rect x="394.12" y="11.56" width="4.28" height="196.89" rx="2.14" fill="#d7b66f" opacity="0.943"/><rect x="400.80" y="22.86" width="4.28" height="174.28" rx="2.14" fill="#d7b66f" opacity="0.892"/><rect x="407.48" y="31.25" width="4.28" height="157.50" rx="2.14" fill="#d7b66f" opacity="0.854"/><rect x="414.16" y="18.11" width="4.28" height="183.78" rx="2.14" fill="#d7b66f" opacity="0.913"/><rect x="420.84" y="38.73" width="4.28" height="142.54" rx="2.14" fill="#c05a86" opacity="0.821"/><rect x="427.52" y="99.46" width="4.28" height="21.07" rx="2.14" fill="#d7b66f" opacity="0.547"/><rect x="434.20" y="101.39" width="4.28" height="17.23" rx="2.14" fill="#d7b66f" opacity="0.539"/><rect x="440.88" y="102.51" width="4.28" height="14.98" rx="2.14" fill="#d7b66f" opacity="0.534"/><rect x="447.56" y="105.69" width="4.28" height="8.62" rx="2.14" fill="#d7b66f" opacity="0.519"/><rect x="454.24" y="102.31" width="4.28" height="15.38" rx="2.14" fill="#d7b66f" opacity="0.535"/><rect x="460.92" y="104.92" width="4.28" height="10.16" rx="2.14" fill="#d7b66f" opacity="0.523"/><rect x="467.60" y="100.70" width="4.28" height="18.60" rx="2.14" fill="#c05a86" opacity="0.542"/><rect x="474.28" y="101.92" width="4.28" height="16.15" rx="2.14" fill="#d7b66f" opacity="0.536"/><rect x="480.96" y="101.93" width="4.28" height="16.14" rx="2.14" fill="#d7b66f" opacity="0.536"/><rect x="487.64" y="103.62" width="4.28" height="12.76" rx="2.14" fill="#d7b66f" opacity="0.529"/><rect x="494.32" y="104.81" width="4.28" height="10.39" rx="2.14" fill="#d7b66f" opacity="0.523"/><rect x="501.00" y="83.18" width="4.28" height="53.65" rx="2.14" fill="#d7b66f" opacity="0.621"/><rect x="507.68" y="70.06" width="4.28" height="79.89" rx="2.14" fill="#d7b66f" opacity="0.680"/><rect x="514.36" y="63.60" width="4.28" height="92.79" rx="2.14" fill="#c05a86" opacity="0.709"/><rect x="521.04" y="69.70" width="4.28" height="80.60" rx="2.14" fill="#d7b66f" opacity="0.681"/><rect x="527.72" y="56.81" width="4.28" height="106.37" rx="2.14" fill="#d7b66f" opacity="0.739"/><rect x="534.40" y="48.30" width="4.28" height="123.40" rx="2.14" fill="#d7b66f" opacity="0.778"/><rect x="541.08" y="69.97" width="4.28" height="80.06" rx="2.14" fill="#d7b66f" opacity="0.680"/><rect x="547.76" y="77.41" width="4.28" height="65.18" rx="2.14" fill="#d7b66f" opacity="0.647"/><rect x="554.44" y="60.66" width="4.28" height="98.68" rx="2.14" fill="#d7b66f" opacity="0.722"/><rect x="561.12" y="83.23" width="4.28" height="53.55" rx="2.14" fill="#c05a86" opacity="0.620"/><rect x="567.80" y="63.42" width="4.28" height="93.16" rx="2.14" fill="#d7b66f" opacity="0.710"/><rect x="574.48" y="82.82" width="4.28" height="54.36" rx="2.14" fill="#d7b66f" opacity="0.622"/><rect x="581.16" y="78.96" width="4.28" height="62.09" rx="2.14" fill="#d7b66f" opacity="0.640"/><rect x="587.84" y="49.32" width="4.28" height="121.36" rx="2.14" fill="#d7b66f" opacity="0.773"/><rect x="594.52" y="34.73" width="4.28" height="150.53" rx="2.14" fill="#d7b66f" opacity="0.839"/><rect x="601.20" y="39.47" width="4.28" height="141.05" rx="2.14" fill="#d7b66f" opacity="0.817"/><rect x="607.88" y="42.74" width="4.28" height="134.51" rx="2.14" fill="#c05a86" opacity="0.803"/><rect x="614.56" y="45.70" width="4.28" height="128.59" rx="2.14" fill="#d7b66f" opacity="0.789"/><rect x="621.24" y="39.25" width="4.28" height="141.49" rx="2.14" fill="#d7b66f" opacity="0.818"/><rect x="627.92" y="37.69" width="4.28" height="144.62" rx="2.14" fill="#d7b66f" opacity="0.825"/><rect x="634.60" y="41.47" width="4.28" height="137.05" rx="2.14" fill="#d7b66f" opacity="0.808"/><rect x="641.28" y="46.53" width="4.28" height="126.93" rx="2.14" fill="#d7b66f" opacity="0.786"/><rect x="647.96" y="33.70" width="4.28" height="152.60" rx="2.14" fill="#d7b66f" opacity="0.843"/><rect x="654.64" y="38.78" width="4.28" height="142.44" rx="2.14" fill="#c05a86" opacity="0.820"/><rect x="661.32" y="41.53" width="4.28" height="136.94" rx="2.14" fill="#d7b66f" opacity="0.808"/><rect x="668.00" y="34.11" width="4.28" height="151.79" rx="2.14" fill="#d7b66f" opacity="0.842"/><rect x="674.68" y="38.65" width="4.28" height="142.69" rx="2.14" fill="#d7b66f" opacity="0.821"/><rect x="681.36" y="39.37" width="4.28" height="141.27" rx="2.14" fill="#d7b66f" opacity="0.818"/><rect x="688.04" y="42.59" width="4.28" height="134.83" rx="2.14" fill="#d7b66f" opacity="0.803"/><rect x="694.72" y="38.75" width="4.28" height="142.50" rx="2.14" fill="#d7b66f" opacity="0.821"/><rect x="701.40" y="41.01" width="4.28" height="137.97" rx="2.14" fill="#c05a86" opacity="0.810"/><rect x="708.08" y="43.58" width="4.28" height="132.84" rx="2.14" fill="#d7b66f" opacity="0.799"/><rect x="714.76" y="35.57" width="4.28" height="148.87" rx="2.14" fill="#d7b66f" opacity="0.835"/><rect x="721.44" y="34.50" width="4.28" height="150.99" rx="2.14" fill="#d7b66f" opacity="0.840"/><rect x="728.12" y="37.60" width="4.28" height="144.80" rx="2.14" fill="#d7b66f" opacity="0.826"/><rect x="734.80" y="40.86" width="4.28" height="138.29" rx="2.14" fill="#d7b66f" opacity="0.811"/><rect x="741.48" y="33.80" width="4.28" height="152.41" rx="2.14" fill="#d7b66f" opacity="0.843"/><rect x="748.16" y="45.70" width="4.28" height="128.59" rx="2.14" fill="#c05a86" opacity="0.789"/><rect x="754.84" y="41.03" width="4.28" height="137.94" rx="2.14" fill="#d7b66f" opacity="0.810"/><rect x="761.52" y="35.91" width="4.28" height="148.18" rx="2.14" fill="#d7b66f" opacity="0.833"/><rect x="768.20" y="41.69" width="4.28" height="136.63" rx="2.14" fill="#d7b66f" opacity="0.807"/><rect x="774.88" y="36.97" width="4.28" height="146.05" rx="2.14" fill="#d7b66f" opacity="0.829"/><rect x="781.56" y="39.45" width="4.28" height="141.09" rx="2.14" fill="#d7b66f" opacity="0.817"/><rect x="788.24" y="41.38" width="4.28" height="137.23" rx="2.14" fill="#d7b66f" opacity="0.809"/><rect x="794.92" y="40.24" width="4.28" height="139.51" rx="2.14" fill="#c05a86" opacity="0.814"/><rect x="801.60" y="43.13" width="4.28" height="133.74" rx="2.14" fill="#d7b66f" opacity="0.801"/><rect x="808.28" y="34.11" width="4.28" height="151.78" rx="2.14" fill="#d7b66f" opacity="0.841"/><rect x="814.96" y="40.86" width="4.28" height="138.28" rx="2.14" fill="#d7b66f" opacity="0.811"/><rect x="821.64" y="39.58" width="4.28" height="140.83" rx="2.14" fill="#d7b66f" opacity="0.817"/><rect x="828.32" y="34.25" width="4.28" height="151.50" rx="2.14" fill="#d7b66f" opacity="0.841"/><rect x="835.00" y="38.58" width="4.28" height="142.85" rx="2.14" fill="#d7b66f" opacity="0.821"/><rect x="841.68" y="36.86" width="4.28" height="146.28" rx="2.14" fill="#c05a86" opacity="0.829"/><rect x="848.36" y="35.36" width="4.28" height="149.28" rx="2.14" fill="#d7b66f" opacity="0.836"/><rect x="855.04" y="38.22" width="4.28" height="143.56" rx="2.14" fill="#d7b66f" opacity="0.823"/><rect x="861.72" y="37.38" width="4.28" height="145.24" rx="2.14" fill="#d7b66f" opacity="0.827"/><rect x="868.40" y="37.44" width="4.28" height="145.13" rx="2.14" fill="#d7b66f" opacity="0.827"/><rect x="875.08" y="38.76" width="4.28" height="142.48" rx="2.14" fill="#d7b66f" opacity="0.821"/><rect x="881.76" y="42.56" width="4.28" height="134.89" rx="2.14" fill="#d7b66f" opacity="0.803"/><rect x="888.44" y="48.96" width="4.28" height="122.08" rx="2.14" fill="#c05a86" opacity="0.775"/><rect x="895.12" y="36.47" width="4.28" height="147.05" rx="2.14" fill="#d7b66f" opacity="0.831"/><rect x="901.80" y="41.75" width="4.28" height="136.50" rx="2.14" fill="#d7b66f" opacity="0.807"/><rect x="908.48" y="48.79" width="4.28" height="122.41" rx="2.14" fill="#d7b66f" opacity="0.775"/><rect x="915.16" y="39.45" width="4.28" height="141.10" rx="2.14" fill="#d7b66f" opacity="0.817"/><rect x="921.84" y="39.16" width="4.28" height="141.68" rx="2.14" fill="#d7b66f" opacity="0.819"/><rect x="928.52" y="34.42" width="4.28" height="151.17" rx="2.14" fill="#d7b66f" opacity="0.840"/><rect x="935.20" y="32.62" width="4.28" height="154.76" rx="2.14" fill="#c05a86" opacity="0.848"/><rect x="941.88" y="54.50" width="4.28" height="111.00" rx="2.14" fill="#d7b66f" opacity="0.750"/><rect x="948.56" y="32.01" width="4.28" height="155.99" rx="2.14" fill="#d7b66f" opacity="0.851"/><rect x="955.24" y="32.10" width="4.28" height="155.81" rx="2.14" fill="#d7b66f" opacity="0.851"/><rect x="961.92" y="57.61" width="4.28" height="104.78" rx="2.14" fill="#d7b66f" opacity="0.736"/><rect x="968.60" y="47.20" width="4.28" height="125.60" rx="2.14" fill="#d7b66f" opacity="0.783"/><rect x="975.28" y="44.63" width="4.28" height="130.75" rx="2.14" fill="#d7b66f" opacity="0.794"/><rect x="981.96" y="36.23" width="4.28" height="147.54" rx="2.14" fill="#c05a86" opacity="0.832"/><rect x="988.64" y="26.12" width="4.28" height="167.76" rx="2.14" fill="#d7b66f" opacity="0.877"/><rect x="995.32" y="39.22" width="4.28" height="141.56" rx="2.14" fill="#d7b66f" opacity="0.819"/><rect x="1002.00" y="36.17" width="4.28" height="147.66" rx="2.14" fill="#d7b66f" opacity="0.832"/><rect x="1008.68" y="58.78" width="4.28" height="102.45" rx="2.14" fill="#d7b66f" opacity="0.731"/><rect x="1015.36" y="60.63" width="4.28" height="98.73" rx="2.14" fill="#d7b66f" opacity="0.722"/><rect x="1022.04" y="57.51" width="4.28" height="104.97" rx="2.14" fill="#d7b66f" opacity="0.736"/><rect x="1028.72" y="67.64" width="4.28" height="84.72" rx="2.14" fill="#c05a86" opacity="0.691"/><rect x="1035.40" y="82.97" width="4.28" height="54.05" rx="2.14" fill="#d7b66f" opacity="0.622"/><rect x="1042.08" y="64.44" width="4.28" height="91.11" rx="2.14" fill="#d7b66f" opacity="0.705"/><rect x="1048.76" y="67.42" width="4.28" height="85.16" rx="2.14" fill="#d7b66f" opacity="0.692"/><rect x="1055.44" y="90.38" width="4.28" height="39.25" rx="2.14" fill="#d7b66f" opacity="0.588"/><rect x="1062.12" y="64.68" width="4.28" height="90.65" rx="2.14" fill="#d7b66f" opacity="0.704"/><rect x="1068.80" y="61.01" width="4.28" height="97.98" rx="2.14" fill="#d7b66f" opacity="0.720"/><rect x="1075.48" y="75.53" width="4.28" height="68.94" rx="2.14" fill="#c05a86" opacity="0.655"/><rect x="1082.16" y="62.02" width="4.28" height="95.97" rx="2.14" fill="#d7b66f" opacity="0.716"/><rect x="1088.84" y="66.23" width="4.28" height="87.55" rx="2.14" fill="#d7b66f" opacity="0.697"/><rect x="1095.52" y="72.36" width="4.28" height="75.28" rx="2.14" fill="#d7b66f" opacity="0.669"/><rect x="1102.20" y="76.78" width="4.28" height="66.44" rx="2.14" fill="#d7b66f" opacity="0.649"/><rect x="1108.88" y="90.09" width="4.28" height="39.83" rx="2.14" fill="#d7b66f" opacity="0.590"/><rect x="1115.56" y="62.91" width="4.28" height="94.19" rx="2.14" fill="#d7b66f" opacity="0.712"/><rect x="1122.24" y="60.74" width="4.28" height="98.52" rx="2.14" fill="#c05a86" opacity="0.722"/><rect x="1128.92" y="85.87" width="4.28" height="48.25" rx="2.14" fill="#d7b66f" opacity="0.609"/><rect x="1135.60" y="66.73" width="4.28" height="86.54" rx="2.14" fill="#d7b66f" opacity="0.695"/><rect x="1142.28" y="84.72" width="4.28" height="50.55" rx="2.14" fill="#d7b66f" opacity="0.614"/><rect x="1148.96" y="78.59" width="4.28" height="62.82" rx="2.14" fill="#d7b66f" opacity="0.641"/><rect x="1155.64" y="88.24" width="4.28" height="43.53" rx="2.14" fill="#d7b66f" opacity="0.598"/><rect x="1162.32" y="104.96" width="4.28" height="10.07" rx="2.14" fill="#d7b66f" opacity="0.523"/><rect x="1169.00" y="96.73" width="4.28" height="26.55" rx="2.14" fill="#c05a86" opacity="0.560"/><rect x="1175.68" y="106.97" width="4.28" height="6.07" rx="2.14" fill="#d7b66f" opacity="0.514"/><rect x="1182.36" y="105.30" width="4.28" height="9.40" rx="2.14" fill="#d7b66f" opacity="0.521"/><rect x="1189.04" y="108.00" width="4.28" height="4.00" rx="2.14" fill="#d7b66f" opacity="0.504"/><rect x="1195.72" y="108.00" width="4.28" height="4.00" rx="2.14" fill="#d7b66f" opacity="0.503"/></g>
</svg>