<svg xmlns="http://www.w3.org/2000/svg" viewBox="0 0 1200 220" role="img" aria-labelledby="title desc">
<title id="title">Waveform for Vintage</title>
<desc id="desc">A visual amplitude waveform generated from the supplied audio file.</desc>
<rect width="1200" height="220" fill="#0d0b12"/>
<g><rect x="0.00" y="65.41" width="4.28" height="89.18" rx="2.14" fill="#d7b66f" opacity="0.701"/><rect x="6.68" y="55.57" width="4.28" height="108.85" rx="2.14" fill="#c78eb0" opacity="0.745"/><rect x="13.36" y="60.15" width="4.28" height="99.69" rx="2.14" fill="#c78eb0" opacity="0.724"/><rect x="20.04" y="53.33" width="4.28" height="113.33" rx="2.14" fill="#c78eb0" opacity="0.755"/><rect x="26.72" y="60.54" width="4.28" height="98.92" rx="2.14" fill="#c78eb0" opacity="0.723"/><rect x="33.40" y="54.74" width="4.28" height="110.51" rx="2.14" fill="#c78eb0" opacity="0.749"/><rect x="40.08" y="53.66" width="4.28" height="112.69" rx="2.14" fill="#c78eb0" opacity="0.754"/><rect x="46.76" y="63.25" width="4.28" height="93.49" rx="2.14" fill="#d7b66f" opacity="0.710"/><rect x="53.44" y="42.21" width="4.28" height="135.57" rx="2.14" fill="#c78eb0" opacity="0.805"/><rect x="60.12" y="66.46" width="4.28" height="87.09" rx="2.14" fill="#c78eb0" opacity="0.696"/><rect x="66.80" y="45.64" width="4.28" height="128.72" rx="2.14" fill="#c78eb0" opacity="0.790"/><rect x="73.48" y="66.79" width="4.28" height="86.42" rx="2.14" fill="#c78eb0" opacity="0.694"/><rect x="80.16" y="47.64" width="4.28" height="124.73" rx="2.14" fill="#c78eb0" opacity="0.781"/><rect x="86.84" y="56.07" width="4.28" height="107.86" rx="2.14" fill="#c78eb0" opacity="0.743"/><rect x="93.52" y="48.68" width="4.28" height="122.64" rx="2.14" fill="#d7b66f" opacity="0.776"/><rect x="100.20" y="40.15" width="4.28" height="139.69" rx="2.14" fill="#c78eb0" opacity="0.814"/><rect x="106.88" y="29.76" width="4.28" height="160.48" rx="2.14" fill="#c78eb0" opacity="0.861"/><rect x="113.56" y="36.28" width="4.28" height="147.44" rx="2.14" fill="#c78eb0" opacity="0.832"/><rect x="120.24" y="31.26" width="4.28" height="157.48" rx="2.14" fill="#c78eb0" opacity="0.854"/><rect x="126.92" y="37.20" width="4.28" height="145.60" rx="2.14" fill="#c78eb0" opacity="0.828"/><rect x="133.60" y="40.73" width="4.28" height="138.54" rx="2.14" fill="#c78eb0" opacity="0.812"/><rect x="140.28" y="50.43" width="4.28" height="119.14" rx="2.14" fill="#d7b66f" opacity="0.768"/><rect x="146.96" y="51.71" width="4.28" height="116.59" rx="2.14" fill="#c78eb0" opacity="0.762"/><rect x="153.64" y="24.17" width="4.28" height="171.67" rx="2.14" fill="#c78eb0" opacity="0.886"/><rect x="160.32" y="42.00" width="4.28" height="136.00" rx="2.14" fill="#c78eb0" opacity="0.806"/><rect x="167.00" y="27.68" width="4.28" height="164.64" rx="2.14" fill="#c78eb0" opacity="0.870"/><rect x="173.68" y="50.75" width="4.28" height="118.50" rx="2.14" fill="#c78eb0" opacity="0.767"/><rect x="180.36" y="35.46" width="4.28" height="149.07" rx="2.14" fill="#c78eb0" opacity="0.835"/><rect x="187.04" y="42.12" width="4.28" height="135.77" rx="2.14" fill="#d7b66f" opacity="0.805"/><rect x="193.72" y="46.58" width="4.28" height="126.85" rx="2.14" fill="#c78eb0" opacity="0.785"/><rect x="200.40" y="28.13" width="4.28" height="163.75" rx="2.14" fill="#c78eb0" opacity="0.868"/><rect x="207.08" y="25.60" width="4.28" height="168.81" rx="2.14" fill="#c78eb0" opacity="0.880"/><rect x="213.76" y="24.28" width="4.28" height="171.43" rx="2.14" fill="#c78eb0" opacity="0.886"/><rect x="220.44" y="20.15" width="4.28" height="179.71" rx="2.14" fill="#c78eb0" opacity="0.904"/><rect x="227.12" y="32.01" width="4.28" height="155.98" rx="2.14" fill="#c78eb0" opacity="0.851"/><rect x="233.80" y="26.10" width="4.28" height="167.80" rx="2.14" fill="#d7b66f" opacity="0.878"/><rect x="240.48" y="15.67" width="4.28" height="188.66" rx="2.14" fill="#c78eb0" opacity="0.924"/><rect x="247.16" y="26.60" width="4.28" height="166.81" rx="2.14" fill="#c78eb0" opacity="0.875"/><rect x="253.84" y="22.34" width="4.28" height="175.32" rx="2.14" fill="#c78eb0" opacity="0.894"/><rect x="260.52" y="26.74" width="4.28" height="166.52" rx="2.14" fill="#c78eb0" opacity="0.875"/><rect x="267.20" y="22.27" width="4.28" height="175.46" rx="2.14" fill="#c78eb0" opacity="0.895"/><rect x="273.88" y="25.36" width="4.28" height="169.28" rx="2.14" fill="#c78eb0" opacity="0.881"/><rect x="280.56" y="28.03" width="4.28" height="163.94" rx="2.14" fill="#d7b66f" opacity="0.869"/><rect x="287.24" y="10.00" width="4.28" height="200.00" rx="2.14" fill="#c78eb0" opacity="0.950"/><rect x="293.92" y="30.06" width="4.28" height="159.88" rx="2.14" fill="#c78eb0" opacity="0.860"/><rect x="300.60" y="32.76" width="4.28" height="154.48" rx="2.14" fill="#c78eb0" opacity="0.848"/><rect x="307.28" y="25.29" width="4.28" height="169.42" rx="2.14" fill="#c78eb0" opacity="0.881"/><rect x="313.96" y="21.12" width="4.28" height="177.75" rx="2.14" fill="#c78eb0" opacity="0.900"/><rect x="320.64" y="31.90" width="4.28" height="156.20" rx="2.14" fill="#c78eb0" opacity="0.851"/><rect x="327.32" y="29.89" width="4.28" height="160.22" rx="2.14" fill="#d7b66f" opacity="0.861"/><rect x="334.00" y="27.20" width="4.28" height="165.60" rx="2.14" fill="#c78eb0" opacity="0.873"/><rect x="340.68" y="16.62" width="4.28" height="186.77" rx="2.14" fill="#c78eb0" opacity="0.920"/><rect x="347.36" y="30.79" width="4.28" height="158.42" rx="2.14" fill="#c78eb0" opacity="0.856"/><rect x="354.04" y="16.95" width="4.28" height="186.11" rx="2.14" fill="#c78eb0" opacity="0.919"/><rect x="360.72" y="24.93" width="4.28" height="170.14" rx="2.14" fill="#c78eb0" opacity="0.883"/><rect x="367.40" y="22.65" width="4.28" height="174.70" rx="2.14" fill="#c78eb0" opacity="0.893"/><rect x="374.08" y="19.39" width="4.28" height="181.22" rx="2.14" fill="#d7b66f" opacity="0.908"/><rect x="380.76" y="35.68" width="4.28" height="148.64" rx="2.14" fill="#c78eb0" opacity="0.834"/><rect x="387.44" y="15.57" width="4.28" height="188.86" rx="2.14" fill="#c78eb0" opacity="0.925"/><rect x="394.12" y="27.79" width="4.28" height="164.42" rx="2.14" fill="#c78eb0" opacity="0.870"/><rect x="400.80" y="28.64" width="4.28" height="162.71" rx="2.14" fill="#c78eb0" opacity="0.866"/><rect x="407.48" y="19.47" width="4.28" height="181.05" rx="2.14" fill="#c78eb0" opacity="0.907"/><rect x="414.16" y="26.02" width="4.28" height="167.97" rx="2.14" fill="#c78eb0" opacity="0.878"/><rect x="420.84" y="19.76" width="4.28" height="180.48" rx="2.14" fill="#d7b66f" opacity="0.906"/><rect x="427.52" y="25.85" width="4.28" height="168.29" rx="2.14" fill="#c78eb0" opacity="0.879"/><rect x="434.20" y="22.65" width="4.28" height="174.70" rx="2.14" fill="#c78eb0" opacity="0.893"/><rect x="440.88" y="18.98" width="4.28" height="182.04" rx="2.14" fill="#c78eb0" opacity="0.910"/><rect x="447.56" y="30.23" width="4.28" height="159.55" rx="2.14" fill="#c78eb0" opacity="0.859"/><rect x="454.24" y="21.54" width="4.28" height="176.93" rx="2.14" fill="#c78eb0" opacity="0.898"/><rect x="460.92" y="21.22" width="4.28" height="177.57" rx="2.14" fill="#c78eb0" opacity="0.900"/><rect x="467.60" y="18.91" width="4.28" height="182.17" rx="2.14" fill="#d7b66f" opacity="0.910"/><rect x="474.28" y="22.07" width="4.28" height="175.87" rx="2.14" fill="#c78eb0" opacity="0.896"/><rect x="480.96" y="24.57" width="4.28" height="170.85" rx="2.14" fill="#c78eb0" opacity="0.884"/><rect x="487.64" y="17.96" width="4.28" height="184.07" rx="2.14" fill="#c78eb0" opacity="0.914"/><rect x="494.32" y="27.49" width="4.28" height="165.02" rx="2.14" fill="#c78eb0" opacity="0.871"/><rect x="501.00" y="32.45" width="4.28" height="155.10" rx="2.14" fill="#c78eb0" opacity="0.849"/><rect x="507.68" y="24.07" width="4.28" height="171.86" rx="2.14" fill="#c78eb0" opacity="0.887"/><rect x="514.36" y="25.77" width="4.28" height="168.45" rx="2.14" fill="#d7b66f" opacity="0.879"/><rect x="521.04" y="27.42" width="4.28" height="165.16" rx="2.14" fill="#c78eb0" opacity="0.872"/><rect x="527.72" y="27.25" width="4.28" height="165.50" rx="2.14" fill="#c78eb0" opacity="0.872"/><rect x="534.40" y="18.53" width="4.28" height="182.93" rx="2.14" fill="#c78eb0" opacity="0.912"/><rect x="541.08" y="21.24" width="4.28" height="177.52" rx="2.14" fill="#c78eb0" opacity="0.899"/><rect x="547.76" y="26.67" width="4.28" height="166.67" rx="2.14" fill="#c78eb0" opacity="0.875"/><rect x="554.44" y="19.44" width="4.28" height="181.13" rx="2.14" fill="#c78eb0" opacity="0.908"/><rect x="561.12" y="18.61" width="4.28" height="182.79" rx="2.14" fill="#d7b66f" opacity="0.911"/><rect x="567.80" y="20.71" width="4.28" height="178.57" rx="2.14" fill="#c78eb0" opacity="0.902"/><rect x="574.48" y="18.18" width="4.28" height="183.64" rx="2.14" fill="#c78eb0" opacity="0.913"/><rect x="581.16" y="32.24" width="4.28" height="155.52" rx="2.14" fill="#c78eb0" opacity="0.850"/><rect x="587.84" y="16.70" width="4.28" height="186.59" rx="2.14" fill="#c78eb0" opacity="0.920"/><rect x="594.52" y="22.07" width="4.28" height="175.86" rx="2.14" fill="#c78eb0" opacity="0.896"/><rect x="601.20" y="31.18" width="4.28" height="157.64" rx="2.14" fill="#c78eb0" opacity="0.855"/><rect x="607.88" y="23.61" width="4.28" height="172.77" rx="2.14" fill="#d7b66f" opacity="0.889"/><rect x="614.56" y="25.83" width="4.28" height="168.33" rx="2.14" fill="#c78eb0" opacity="0.879"/><rect x="621.24" y="23.71" width="4.28" height="172.58" rx="2.14" fill="#c78eb0" opacity="0.888"/><rect x="627.92" y="26.39" width="4.28" height="167.21" rx="2.14" fill="#c78eb0" opacity="0.876"/><rect x="634.60" y="16.39" width="4.28" height="187.21" rx="2.14" fill="#c78eb0" opacity="0.921"/><rect x="641.28" y="18.99" width="4.28" height="182.03" rx="2.14" fill="#c78eb0" opacity="0.910"/><rect x="647.96" y="29.64" width="4.28" height="160.72" rx="2.14" fill="#c78eb0" opacity="0.862"/><rect x="654.64" y="25.75" width="4.28" height="168.50" rx="2.14" fill="#d7b66f" opacity="0.879"/><rect x="661.32" y="22.83" width="4.28" height="174.34" rx="2.14" fill="#c78eb0" opacity="0.892"/><rect x="668.00" y="21.08" width="4.28" height="177.85" rx="2.14" fill="#c78eb0" opacity="0.900"/><rect x="674.68" y="22.60" width="4.28" height="174.79" rx="2.14" fill="#c78eb0" opacity="0.893"/><rect x="681.36" y="30.09" width="4.28" height="159.81" rx="2.14" fill="#c78eb0" opacity="0.860"/><rect x="688.04" y="17.65" width="4.28" height="184.70" rx="2.14" fill="#c78eb0" opacity="0.916"/><rect x="694.72" y="24.59" width="4.28" height="170.82" rx="2.14" fill="#c78eb0" opacity="0.884"/><rect x="701.40" y="30.87" width="4.28" height="158.27" rx="2.14" fill="#d7b66f" opacity="0.856"/><rect x="708.08" y="19.92" width="4.28" height="180.16" rx="2.14" fill="#c78eb0" opacity="0.905"/><rect x="714.76" y="25.19" width="4.28" height="169.62" rx="2.14" fill="#c78eb0" opacity="0.882"/><rect x="721.44" y="20.57" width="4.28" height="178.85" rx="2.14" fill="#c78eb0" opacity="0.902"/><rect x="728.12" y="23.85" width="4.28" height="172.30" rx="2.14" fill="#c78eb0" opacity="0.888"/><rect x="734.80" y="23.55" width="4.28" height="172.90" rx="2.14" fill="#c78eb0" opacity="0.889"/><rect x="741.48" y="17.11" width="4.28" height="185.78" rx="2.14" fill="#c78eb0" opacity="0.918"/><rect x="748.16" y="32.72" width="4.28" height="154.56" rx="2.14" fill="#d7b66f" opacity="0.848"/><rect x="754.84" y="21.47" width="4.28" height="177.06" rx="2.14" fill="#c78eb0" opacity="0.898"/><rect x="761.52" y="21.43" width="4.28" height="177.14" rx="2.14" fill="#c78eb0" opacity="0.899"/><rect x="768.20" y="21.10" width="4.28" height="177.80" rx="2.14" fill="#c78eb0" opacity="0.900"/><rect x="774.88" y="21.67" width="4.28" height="176.66" rx="2.14" fill="#c78eb0" opacity="0.897"/><rect x="781.56" y="23.97" width="4.28" height="172.07" rx="2.14" fill="#c78eb0" opacity="0.887"/><rect x="788.24" y="17.90" width="4.28" height="184.20" rx="2.14" fill="#c78eb0" opacity="0.914"/><rect x="794.92" y="25.43" width="4.28" height="169.14" rx="2.14" fill="#d7b66f" opacity="0.881"/><rect x="801.60" y="39.01" width="4.28" height="141.98" rx="2.14" fill="#c78eb0" opacity="0.819"/><rect x="808.28" y="30.05" width="4.28" height="159.90" rx="2.14" fill="#c78eb0" opacity="0.860"/><rect x="814.96" y="28.69" width="4.28" height="162.62" rx="2.14" fill="#c78eb0" opacity="0.866"/><rect x="821.64" y="26.31" width="4.28" height="167.39" rx="2.14" fill="#c78eb0" opacity="0.877"/><rect x="828.32" y="28.50" width="4.28" height="162.99" rx="2.14" fill="#c78eb0" opacity="0.867"/><rect x="835.00" y="26.20" width="4.28" height="167.61" rx="2.14" fill="#c78eb0" opacity="0.877"/><rect x="841.68" y="17.05" width="4.28" height="185.90" rx="2.14" fill="#d7b66f" opacity="0.918"/><rect x="848.36" y="38.80" width="4.28" height="142.41" rx="2.14" fill="#c78eb0" opacity="0.820"/><rect x="855.04" y="24.06" width="4.28" height="171.88" rx="2.14" fill="#c78eb0" opacity="0.887"/><rect x="861.72" y="20.98" width="4.28" height="178.04" rx="2.14" fill="#c78eb0" opacity="0.901"/><rect x="868.40" y="24.05" width="4.28" height="171.90" rx="2.14" fill="#c78eb0" opacity="0.887"/><rect x="875.08" y="21.72" width="4.28" height="176.56" rx="2.14" fill="#c78eb0" opacity="0.897"/><rect x="881.76" y="28.97" width="4.28" height="162.06" rx="2.14" fill="#c78eb0" opacity="0.865"/><rect x="888.44" y="12.92" width="4.28" height="194.15" rx="2.14" fill="#d7b66f" opacity="0.937"/><rect x="895.12" y="27.64" width="4.28" height="164.71" rx="2.14" fill="#c78eb0" opacity="0.871"/><rect x="901.80" y="33.30" width="4.28" height="153.40" rx="2.14" fill="#c78eb0" opacity="0.845"/><rect x="908.48" y="25.92" width="4.28" height="168.15" rx="2.14" fill="#c78eb0" opacity="0.878"/><rect x="915.16" y="26.87" width="4.28" height="166.25" rx="2.14" fill="#c78eb0" opacity="0.874"/><rect x="921.84" y="32.31" width="4.28" height="155.38" rx="2.14" fill="#c78eb0" opacity="0.850"/><rect x="928.52" y="24.66" width="4.28" height="170.67" rx="2.14" fill="#c78eb0" opacity="0.884"/><rect x="935.20" y="29.07" width="4.28" height="161.86" rx="2.14" fill="#d7b66f" opacity="0.864"/><rect x="941.88" y="22.63" width="4.28" height="174.74" rx="2.14" fill="#c78eb0" opacity="0.893"/><rect x="948.56" y="34.91" width="4.28" height="150.17" rx="2.14" fill="#c78eb0" opacity="0.838"/><rect x="955.24" y="23.39" width="4.28" height="173.21" rx="2.14" fill="#c78eb0" opacity="0.890"/><rect x="961.92" y="21.04" width="4.28" height="177.93" rx="2.14" fill="#c78eb0" opacity="0.900"/><rect x="968.60" y="30.33" width="4.28" height="159.34" rx="2.14" fill="#c78eb0" opacity="0.859"/><rect x="975.28" y="24.10" width="4.28" height="171.81" rx="2.14" fill="#c78eb0" opacity="0.887"/><rect x="981.96" y="25.53" width="4.28" height="168.94" rx="2.14" fill="#d7b66f" opacity="0.880"/><rect x="988.64" y="18.07" width="4.28" height="183.87" rx="2.14" fill="#c78eb0" opacity="0.914"/><rect x="995.32" y="29.11" width="4.28" height="161.78" rx="2.14" fill="#c78eb0" opacity="0.864"/><rect x="1002.00" y="31.95" width="4.28" height="156.11" rx="2.14" fill="#c78eb0" opacity="0.851"/><rect x="1008.68" y="17.61" width="4.28" height="184.78" rx="2.14" fill="#c78eb0" opacity="0.916"/><rect x="1015.36" y="25.42" width="4.28" height="169.17" rx="2.14" fill="#c78eb0" opacity="0.881"/><rect x="1022.04" y="20.07" width="4.28" height="179.85" rx="2.14" fill="#c78eb0" opacity="0.905"/><rect x="1028.72" y="24.02" width="4.28" height="171.95" rx="2.14" fill="#d7b66f" opacity="0.887"/><rect x="1035.40" y="23.68" width="4.28" height="172.64" rx="2.14" fill="#c78eb0" opacity="0.888"/><rect x="1042.08" y="17.77" width="4.28" height="184.46" rx="2.14" fill="#c78eb0" opacity="0.915"/><rect x="1048.76" y="31.88" width="4.28" height="156.24" rx="2.14" fill="#c78eb0" opacity="0.852"/><rect x="1055.44" y="20.75" width="4.28" height="178.50" rx="2.14" fill="#c78eb0" opacity="0.902"/><rect x="1062.12" y="20.80" width="4.28" height="178.41" rx="2.14" fill="#c78eb0" opacity="0.901"/><rect x="1068.80" y="21.71" width="4.28" height="176.59" rx="2.14" fill="#c78eb0" opacity="0.897"/><rect x="1075.48" y="21.54" width="4.28" height="176.93" rx="2.14" fill="#d7b66f" opacity="0.898"/><rect x="1082.16" y="23.89" width="4.28" height="172.21" rx="2.14" fill="#c78eb0" opacity="0.887"/><rect x="1088.84" y="17.99" width="4.28" height="184.02" rx="2.14" fill="#c78eb0" opacity="0.914"/><rect x="1095.52" y="32.60" width="4.28" height="154.79" rx="2.14" fill="#c78eb0" opacity="0.848"/><rect x="1102.20" y="72.13" width="4.28" height="75.74" rx="2.14" fill="#c78eb0" opacity="0.670"/><rect x="1108.88" y="54.00" width="4.28" height="112.00" rx="2.14" fill="#c78eb0" opacity="0.752"/><rect x="1115.56" y="57.87" width="4.28" height="104.27" rx="2.14" fill="#c78eb0" opacity="0.735"/><rect x="1122.24" y="57.30" width="4.28" height="105.41" rx="2.14" fill="#d7b66f" opacity="0.737"/><rect x="1128.92" y="58.67" width="4.28" height="102.66" rx="2.14" fill="#c78eb0" opacity="0.731"/><rect x="1135.60" y="55.65" width="4.28" height="108.69" rx="2.14" fill="#c78eb0" opacity="0.745"/><rect x="1142.28" y="49.89" width="4.28" height="120.22" rx="2.14" fill="#c78eb0" opacity="0.771"/><rect x="1148.96" y="68.48" width="4.28" height="83.04" rx="2.14" fill="#c78eb0" opacity="0.687"/><rect x="1155.64" y="42.29" width="4.28" height="135.42" rx="2.14" fill="#c78eb0" opacity="0.805"/><rect x="1162.32" y="59.60" width="4.28" height="100.79" rx="2.14" fill="#c78eb0" opacity="0.727"/><rect x="1169.00" y="49.30" width="4.28" height="121.39" rx="2.14" fill="#d7b66f" opacity="0.773"/><rect x="1175.68" y="56.12" width="4.28" height="107.76" rx="2.14" fill="#c78eb0" opacity="0.742"/><rect x="1182.36" y="51.85" width="4.28" height="116.29" rx="2.14" fill="#c78eb0" opacity="0.762"/><rect x="1189.04" y="53.78" width="4.28" height="112.44" rx="2.14" fill="#c78eb0" opacity="0.753"/><rect x="1195.72" y="51.01" width="4.28" height="117.97" rx="2.14" fill="#c78eb0" opacity="0.765"/></g>
</svg>