<svg xmlns="http://www.w3.org/2000/svg" viewBox="0 0 1200 220" role="img" aria-labelledby="title desc">
<title id="title">Waveform for Where R U Going?</title>
<desc id="desc">A visual amplitude waveform generated from the supplied audio file.</desc>
<rect width="1200" height="220" fill="#0d0b12"/>
<g><rect x="0.00" y="60.14" width="4.27" height="99.72" rx="2.13" fill="#c78eb0" opacity="0.734"/><rect x="6.67" y="65.59" width="4.27" height="88.82" rx="2.13" fill="#8fb4d5" opacity="0.711"/><rect x="13.33" y="61.76" width="4.27" height="96.48" rx="2.13" fill="#8fb4d5" opacity="0.727"/><rect x="20.00" y="60.93" width="4.27" height="98.14" rx="2.13" fill="#8fb4d5" opacity="0.731"/><rect x="26.67" y="80.52" width="4.27" height="58.96" rx="2.13" fill="#8fb4d5" opacity="0.647"/><rect x="33.33" y="66.22" width="4.27" height="87.56" rx="2.13" fill="#8fb4d5" opacity="0.708"/><rect x="40.00" y="70.30" width="4.27" height="79.40" rx="2.13" fill="#8fb4d5" opacity="0.691"/><rect x="46.67" y="80.52" width="4.27" height="58.96" rx="2.13" fill="#c78eb0" opacity="0.647"/><rect x="53.33" y="68.54" width="4.27" height="82.92" rx="2.13" fill="#8fb4d5" opacity="0.698"/><rect x="60.00" y="80.52" width="4.27" height="58.96" rx="2.13" fill="#8fb4d5" opacity="0.647"/><rect x="66.67" y="80.52" width="4.27" height="58.96" rx="2.13" fill="#8fb4d5" opacity="0.647"/><rect x="73.33" y="80.52" width="4.27" height="58.96" rx="2.13" fill="#8fb4d5" opacity="0.647"/><rect x="80.00" y="64.75" width="4.27" height="90.49" rx="2.13" fill="#8fb4d5" opacity="0.714"/><rect x="86.67" y="56.87" width="4.27" height="106.27" rx="2.13" fill="#8fb4d5" opacity="0.748"/><rect x="93.33" y="56.91" width="4.27" height="106.18" rx="2.13" fill="#c78eb0" opacity="0.748"/><rect x="100.00" y="59.25" width="4.27" height="101.51" rx="2.13" fill="#8fb4d5" opacity="0.738"/><rect x="106.67" y="80.52" width="4.27" height="58.96" rx="2.13" fill="#8fb4d5" opacity="0.647"/><rect x="113.33" y="66.74" width="4.27" height="86.51" rx="2.13" fill="#8fb4d5" opacity="0.706"/><rect x="120.00" y="64.84" width="4.27" height="90.33" rx="2.13" fill="#8fb4d5" opacity="0.714"/><rect x="126.67" y="58.09" width="4.27" height="103.82" rx="2.13" fill="#8fb4d5" opacity="0.743"/><rect x="133.33" y="80.52" width="4.27" height="58.96" rx="2.13" fill="#8fb4d5" opacity="0.647"/><rect x="140.00" y="71.40" width="4.27" height="77.21" rx="2.13" fill="#c78eb0" opacity="0.686"/><rect x="146.67" y="79.43" width="4.27" height="61.15" rx="2.13" fill="#8fb4d5" opacity="0.651"/><rect x="153.33" y="65.09" width="4.27" height="89.83" rx="2.13" fill="#8fb4d5" opacity="0.713"/><rect x="160.00" y="57.53" width="4.27" height="104.93" rx="2.13" fill="#8fb4d5" opacity="0.745"/><rect x="166.67" y="15.43" width="4.27" height="189.14" rx="2.13" fill="#8fb4d5" opacity="0.927"/><rect x="173.33" y="10.00" width="4.27" height="200.00" rx="2.13" fill="#8fb4d5" opacity="0.950"/><rect x="180.00" y="13.85" width="4.27" height="192.30" rx="2.13" fill="#8fb4d5" opacity="0.933"/><rect x="186.67" y="12.93" width="4.27" height="194.14" rx="2.13" fill="#c78eb0" opacity="0.937"/><rect x="193.33" y="13.52" width="4.27" height="192.95" rx="2.13" fill="#8fb4d5" opacity="0.935"/><rect x="200.00" y="14.36" width="4.27" height="191.27" rx="2.13" fill="#8fb4d5" opacity="0.931"/><rect x="206.67" y="16.71" width="4.27" height="186.57" rx="2.13" fill="#8fb4d5" opacity="0.921"/><rect x="213.33" y="14.80" width="4.27" height="190.40" rx="2.13" fill="#8fb4d5" opacity="0.929"/><rect x="220.00" y="16.66" width="4.27" height="186.69" rx="2.13" fill="#8fb4d5" opacity="0.921"/><rect x="226.67" y="13.30" width="4.27" height="193.41" rx="2.13" fill="#8fb4d5" opacity="0.936"/><rect x="233.33" y="16.52" width="4.27" height="186.95" rx="2.13" fill="#c78eb0" opacity="0.922"/><rect x="240.00" y="18.54" width="4.27" height="182.92" rx="2.13" fill="#8fb4d5" opacity="0.913"/><rect x="246.67" y="12.67" width="4.27" height="194.66" rx="2.13" fill="#8fb4d5" opacity="0.939"/><rect x="253.33" y="14.05" width="4.27" height="191.90" rx="2.13" fill="#8fb4d5" opacity="0.933"/><rect x="260.00" y="10.47" width="4.27" height="199.06" rx="2.13" fill="#8fb4d5" opacity="0.948"/><rect x="266.67" y="12.57" width="4.27" height="194.86" rx="2.13" fill="#8fb4d5" opacity="0.939"/><rect x="273.33" y="22.58" width="4.27" height="174.84" rx="2.13" fill="#8fb4d5" opacity="0.896"/><rect x="280.00" y="12.50" width="4.27" height="194.99" rx="2.13" fill="#c78eb0" opacity="0.939"/><rect x="286.67" y="14.54" width="4.27" height="190.91" rx="2.13" fill="#8fb4d5" opacity="0.930"/><rect x="293.33" y="11.84" width="4.27" height="196.32" rx="2.13" fill="#8fb4d5" opacity="0.942"/><rect x="300.00" y="12.12" width="4.27" height="195.76" rx="2.13" fill="#8fb4d5" opacity="0.941"/><rect x="306.67" y="12.44" width="4.27" height="195.12" rx="2.13" fill="#8fb4d5" opacity="0.939"/><rect x="313.33" y="14.54" width="4.27" height="190.93" rx="2.13" fill="#8fb4d5" opacity="0.930"/><rect x="320.00" y="15.28" width="4.27" height="189.45" rx="2.13" fill="#8fb4d5" opacity="0.927"/><rect x="326.67" y="28.64" width="4.27" height="162.71" rx="2.13" fill="#c78eb0" opacity="0.870"/><rect x="333.33" y="21.57" width="4.27" height="176.87" rx="2.13" fill="#8fb4d5" opacity="0.900"/><rect x="340.00" y="13.37" width="4.27" height="193.26" rx="2.13" fill="#8fb4d5" opacity="0.936"/><rect x="346.67" y="11.75" width="4.27" height="196.50" rx="2.13" fill="#8fb4d5" opacity="0.942"/><rect x="353.33" y="12.80" width="4.27" height="194.41" rx="2.13" fill="#8fb4d5" opacity="0.938"/><rect x="360.00" y="14.35" width="4.27" height="191.30" rx="2.13" fill="#8fb4d5" opacity="0.931"/><rect x="366.67" y="10.57" width="4.27" height="198.86" rx="2.13" fill="#8fb4d5" opacity="0.948"/><rect x="373.33" y="14.14" width="4.27" height="191.72" rx="2.13" fill="#c78eb0" opacity="0.932"/><rect x="380.00" y="15.85" width="4.27" height="188.30" rx="2.13" fill="#8fb4d5" opacity="0.925"/><rect x="386.67" y="13.65" width="4.27" height="192.71" rx="2.13" fill="#8fb4d5" opacity="0.934"/><rect x="393.33" y="13.69" width="4.27" height="192.62" rx="2.13" fill="#8fb4d5" opacity="0.934"/><rect x="400.00" y="19.29" width="4.27" height="181.42" rx="2.13" fill="#8fb4d5" opacity="0.910"/><rect x="406.67" y="14.68" width="4.27" height="190.64" rx="2.13" fill="#8fb4d5" opacity="0.930"/><rect x="413.33" y="24.71" width="4.27" height="170.59" rx="2.13" fill="#8fb4d5" opacity="0.887"/><rect x="420.00" y="21.95" width="4.27" height="176.11" rx="2.13" fill="#c78eb0" opacity="0.899"/><rect x="426.67" y="10.30" width="4.27" height="199.39" rx="2.13" fill="#8fb4d5" opacity="0.949"/><rect x="433.33" y="13.18" width="4.27" height="193.64" rx="2.13" fill="#8fb4d5" opacity="0.936"/><rect x="440.00" y="15.23" width="4.27" height="189.55" rx="2.13" fill="#8fb4d5" opacity="0.928"/><rect x="446.67" y="19.02" width="4.27" height="181.96" rx="2.13" fill="#8fb4d5" opacity="0.911"/><rect x="453.33" y="16.14" width="4.27" height="187.71" rx="2.13" fill="#8fb4d5" opacity="0.924"/><rect x="460.00" y="12.80" width="4.27" height="194.40" rx="2.13" fill="#8fb4d5" opacity="0.938"/><rect x="466.67" y="11.28" width="4.27" height="197.43" rx="2.13" fill="#c78eb0" opacity="0.944"/><rect x="473.33" y="13.58" width="4.27" height="192.83" rx="2.13" fill="#8fb4d5" opacity="0.935"/><rect x="480.00" y="15.40" width="4.27" height="189.20" rx="2.13" fill="#8fb4d5" opacity="0.927"/><rect x="486.67" y="17.61" width="4.27" height="184.78" rx="2.13" fill="#8fb4d5" opacity="0.917"/><rect x="493.33" y="22.36" width="4.27" height="175.29" rx="2.13" fill="#8fb4d5" opacity="0.897"/><rect x="500.00" y="29.33" width="4.27" height="161.35" rx="2.13" fill="#8fb4d5" opacity="0.867"/><rect x="506.67" y="50.07" width="4.27" height="119.85" rx="2.13" fill="#8fb4d5" opacity="0.778"/><rect x="513.33" y="45.27" width="4.27" height="129.46" rx="2.13" fill="#c78eb0" opacity="0.798"/><rect x="520.00" y="43.91" width="4.27" height="132.17" rx="2.13" fill="#8fb4d5" opacity="0.804"/><rect x="526.67" y="33.96" width="4.27" height="152.09" rx="2.13" fill="#8fb4d5" opacity="0.847"/><rect x="533.33" y="40.58" width="4.27" height="138.85" rx="2.13" fill="#8fb4d5" opacity="0.818"/><rect x="540.00" y="36.35" width="4.27" height="147.31" rx="2.13" fill="#8fb4d5" opacity="0.837"/><rect x="546.67" y="39.66" width="4.27" height="140.68" rx="2.13" fill="#8fb4d5" opacity="0.822"/><rect x="553.33" y="38.64" width="4.27" height="142.71" rx="2.13" fill="#8fb4d5" opacity="0.827"/><rect x="560.00" y="37.75" width="4.27" height="144.50" rx="2.13" fill="#c78eb0" opacity="0.831"/><rect x="566.67" y="41.46" width="4.27" height="137.09" rx="2.13" fill="#8fb4d5" opacity="0.815"/><rect x="573.33" y="44.04" width="4.27" height="131.92" rx="2.13" fill="#8fb4d5" opacity="0.804"/><rect x="580.00" y="45.25" width="4.27" height="129.50" rx="2.13" fill="#8fb4d5" opacity="0.798"/><rect x="586.67" y="45.04" width="4.27" height="129.93" rx="2.13" fill="#8fb4d5" opacity="0.799"/><rect x="593.33" y="38.43" width="4.27" height="143.15" rx="2.13" fill="#8fb4d5" opacity="0.828"/><rect x="600.00" y="39.41" width="4.27" height="141.17" rx="2.13" fill="#8fb4d5" opacity="0.823"/><rect x="606.67" y="56.87" width="4.27" height="106.26" rx="2.13" fill="#c78eb0" opacity="0.748"/><rect x="613.33" y="54.23" width="4.27" height="111.54" rx="2.13" fill="#8fb4d5" opacity="0.760"/><rect x="620.00" y="58.90" width="4.27" height="102.21" rx="2.13" fill="#8fb4d5" opacity="0.740"/><rect x="626.67" y="63.19" width="4.27" height="93.62" rx="2.13" fill="#8fb4d5" opacity="0.721"/><rect x="633.33" y="47.74" width="4.27" height="124.52" rx="2.13" fill="#8fb4d5" opacity="0.788"/><rect x="640.00" y="31.50" width="4.27" height="157.00" rx="2.13" fill="#8fb4d5" opacity="0.857"/><rect x="646.67" y="39.64" width="4.27" height="140.72" rx="2.13" fill="#8fb4d5" opacity="0.822"/><rect x="653.33" y="38.35" width="4.27" height="143.30" rx="2.13" fill="#c78eb0" opacity="0.828"/><rect x="660.00" y="41.32" width="4.27" height="137.36" rx="2.13" fill="#8fb4d5" opacity="0.815"/><rect x="666.67" y="41.37" width="4.27" height="137.26" rx="2.13" fill="#8fb4d5" opacity="0.815"/><rect x="673.33" y="23.58" width="4.27" height="172.83" rx="2.13" fill="#8fb4d5" opacity="0.892"/><rect x="680.00" y="18.39" width="4.27" height="183.22" rx="2.13" fill="#8fb4d5" opacity="0.914"/><rect x="686.67" y="13.19" width="4.27" height="193.63" rx="2.13" fill="#8fb4d5" opacity="0.936"/><rect x="693.33" y="10.00" width="4.27" height="200.00" rx="2.13" fill="#8fb4d5" opacity="0.950"/><rect x="700.00" y="12.02" width="4.27" height="195.96" rx="2.13" fill="#c78eb0" opacity="0.941"/><rect x="706.67" y="18.45" width="4.27" height="183.10" rx="2.13" fill="#8fb4d5" opacity="0.914"/><rect x="713.33" y="14.76" width="4.27" height="190.48" rx="2.13" fill="#8fb4d5" opacity="0.930"/><rect x="720.00" y="17.09" width="4.27" height="185.83" rx="2.13" fill="#8fb4d5" opacity="0.920"/><rect x="726.67" y="11.96" width="4.27" height="196.09" rx="2.13" fill="#8fb4d5" opacity="0.942"/><rect x="733.33" y="15.24" width="4.27" height="189.52" rx="2.13" fill="#8fb4d5" opacity="0.927"/><rect x="740.00" y="18.18" width="4.27" height="183.63" rx="2.13" fill="#8fb4d5" opacity="0.915"/><rect x="746.67" y="13.11" width="4.27" height="193.78" rx="2.13" fill="#c78eb0" opacity="0.937"/><rect x="753.33" y="17.48" width="4.27" height="185.04" rx="2.13" fill="#8fb4d5" opacity="0.918"/><rect x="760.00" y="23.73" width="4.27" height="172.54" rx="2.13" fill="#8fb4d5" opacity="0.891"/><rect x="766.67" y="13.46" width="4.27" height="193.09" rx="2.13" fill="#8fb4d5" opacity="0.935"/><rect x="773.33" y="12.65" width="4.27" height="194.70" rx="2.13" fill="#8fb4d5" opacity="0.939"/><rect x="780.00" y="20.33" width="4.27" height="179.35" rx="2.13" fill="#8fb4d5" opacity="0.906"/><rect x="786.67" y="13.59" width="4.27" height="192.83" rx="2.13" fill="#8fb4d5" opacity="0.935"/><rect x="793.33" y="13.77" width="4.27" height="192.45" rx="2.13" fill="#c78eb0" opacity="0.934"/><rect x="800.00" y="14.07" width="4.27" height="191.85" rx="2.13" fill="#8fb4d5" opacity="0.932"/><rect x="806.67" y="14.95" width="4.27" height="190.11" rx="2.13" fill="#8fb4d5" opacity="0.929"/><rect x="813.33" y="19.82" width="4.27" height="180.36" rx="2.13" fill="#8fb4d5" opacity="0.908"/><rect x="820.00" y="12.30" width="4.27" height="195.41" rx="2.13" fill="#8fb4d5" opacity="0.940"/><rect x="826.67" y="18.47" width="4.27" height="183.05" rx="2.13" fill="#8fb4d5" opacity="0.914"/><rect x="833.33" y="30.55" width="4.27" height="158.91" rx="2.13" fill="#8fb4d5" opacity="0.862"/><rect x="840.00" y="21.58" width="4.27" height="176.84" rx="2.13" fill="#c78eb0" opacity="0.900"/><rect x="846.67" y="19.56" width="4.27" height="180.87" rx="2.13" fill="#8fb4d5" opacity="0.909"/><rect x="853.33" y="15.08" width="4.27" height="189.84" rx="2.13" fill="#8fb4d5" opacity="0.928"/><rect x="860.00" y="19.48" width="4.27" height="181.04" rx="2.13" fill="#8fb4d5" opacity="0.909"/><rect x="866.67" y="16.30" width="4.27" height="187.40" rx="2.13" fill="#8fb4d5" opacity="0.923"/><rect x="873.33" y="13.29" width="4.27" height="193.41" rx="2.13" fill="#8fb4d5" opacity="0.936"/><rect x="880.00" y="15.36" width="4.27" height="189.28" rx="2.13" fill="#8fb4d5" opacity="0.927"/><rect x="886.67" y="17.03" width="4.27" height="185.94" rx="2.13" fill="#c78eb0" opacity="0.920"/><rect x="893.33" y="11.56" width="4.27" height="196.88" rx="2.13" fill="#8fb4d5" opacity="0.943"/><rect x="900.00" y="18.85" width="4.27" height="182.29" rx="2.13" fill="#8fb4d5" opacity="0.912"/><rect x="906.67" y="19.17" width="4.27" height="181.66" rx="2.13" fill="#8fb4d5" opacity="0.911"/><rect x="913.33" y="15.01" width="4.27" height="189.98" rx="2.13" fill="#8fb4d5" opacity="0.928"/><rect x="920.00" y="29.20" width="4.27" height="161.59" rx="2.13" fill="#8fb4d5" opacity="0.867"/><rect x="926.67" y="24.27" width="4.27" height="171.45" rx="2.13" fill="#8fb4d5" opacity="0.889"/><rect x="933.33" y="17.34" width="4.27" height="185.32" rx="2.13" fill="#c78eb0" opacity="0.918"/><rect x="940.00" y="18.73" width="4.27" height="182.54" rx="2.13" fill="#8fb4d5" opacity="0.912"/><rect x="946.67" y="10.00" width="4.27" height="200.00" rx="2.13" fill="#8fb4d5" opacity="0.950"/><rect x="953.33" y="14.65" width="4.27" height="190.69" rx="2.13" fill="#8fb4d5" opacity="0.930"/><rect x="960.00" y="10.00" width="4.27" height="200.00" rx="2.13" fill="#8fb4d5" opacity="0.950"/><rect x="966.67" y="14.78" width="4.27" height="190.43" rx="2.13" fill="#8fb4d5" opacity="0.929"/><rect x="973.33" y="17.16" width="4.27" height="185.68" rx="2.13" fill="#8fb4d5" opacity="0.919"/><rect x="980.00" y="13.52" width="4.27" height="192.95" rx="2.13" fill="#c78eb0" opacity="0.935"/><rect x="986.67" y="17.09" width="4.27" height="185.83" rx="2.13" fill="#8fb4d5" opacity="0.920"/><rect x="993.33" y="20.31" width="4.27" height="179.38" rx="2.13" fill="#8fb4d5" opacity="0.906"/><rect x="1000.00" y="18.62" width="4.27" height="182.77" rx="2.13" fill="#8fb4d5" opacity="0.913"/><rect x="1006.67" y="28.91" width="4.27" height="162.18" rx="2.13" fill="#8fb4d5" opacity="0.869"/><rect x="1013.33" y="41.52" width="4.27" height="136.97" rx="2.13" fill="#8fb4d5" opacity="0.814"/><rect x="1020.00" y="35.28" width="4.27" height="149.44" rx="2.13" fill="#8fb4d5" opacity="0.841"/><rect x="1026.67" y="34.14" width="4.27" height="151.73" rx="2.13" fill="#c78eb0" opacity="0.846"/><rect x="1033.33" y="35.65" width="4.27" height="148.71" rx="2.13" fill="#8fb4d5" opacity="0.840"/><rect x="1040.00" y="42.81" width="4.27" height="134.37" rx="2.13" fill="#8fb4d5" opacity="0.809"/><rect x="1046.67" y="33.39" width="4.27" height="153.22" rx="2.13" fill="#8fb4d5" opacity="0.849"/><rect x="1053.33" y="39.30" width="4.27" height="141.40" rx="2.13" fill="#8fb4d5" opacity="0.824"/><rect x="1060.00" y="39.61" width="4.27" height="140.77" rx="2.13" fill="#8fb4d5" opacity="0.823"/><rect x="1066.67" y="33.24" width="4.27" height="153.51" rx="2.13" fill="#8fb4d5" opacity="0.850"/><rect x="1073.33" y="40.68" width="4.27" height="138.64" rx="2.13" fill="#c78eb0" opacity="0.818"/><rect x="1080.00" y="45.69" width="4.27" height="128.62" rx="2.13" fill="#8fb4d5" opacity="0.796"/><rect x="1086.67" y="45.29" width="4.27" height="129.41" rx="2.13" fill="#8fb4d5" opacity="0.798"/><rect x="1093.33" y="40.56" width="4.27" height="138.87" rx="2.13" fill="#8fb4d5" opacity="0.819"/><rect x="1100.00" y="39.63" width="4.27" height="140.74" rx="2.13" fill="#8fb4d5" opacity="0.823"/><rect x="1106.67" y="40.30" width="4.27" height="139.41" rx="2.13" fill="#8fb4d5" opacity="0.820"/><rect x="1113.33" y="43.74" width="4.27" height="132.51" rx="2.13" fill="#8fb4d5" opacity="0.805"/><rect x="1120.00" y="35.49" width="4.27" height="149.03" rx="2.13" fill="#c78eb0" opacity="0.840"/><rect x="1126.67" y="43.10" width="4.27" height="133.81" rx="2.13" fill="#8fb4d5" opacity="0.808"/><rect x="1133.33" y="45.47" width="4.27" height="129.06" rx="2.13" fill="#8fb4d5" opacity="0.797"/><rect x="1140.00" y="43.59" width="4.27" height="132.83" rx="2.13" fill="#8fb4d5" opacity="0.805"/><rect x="1146.67" y="60.23" width="4.27" height="99.55" rx="2.13" fill="#8fb4d5" opacity="0.734"/><rect x="1153.33" y="52.43" width="4.27" height="115.15" rx="2.13" fill="#8fb4d5" opacity="0.767"/><rect x="1160.00" y="49.66" width="4.27" height="120.68" rx="2.13" fill="#8fb4d5" opacity="0.779"/><rect x="1166.67" y="59.48" width="4.27" height="101.03" rx="2.13" fill="#c78eb0" opacity="0.737"/><rect x="1173.33" y="57.45" width="4.27" height="105.11" rx="2.13" fill="#8fb4d5" opacity="0.746"/><rect x="1180.00" y="59.26" width="4.27" height="101.49" rx="2.13" fill="#8fb4d5" opacity="0.738"/><rect x="1186.67" y="80.52" width="4.27" height="58.96" rx="2.13" fill="#8fb4d5" opacity="0.647"/><rect x="1193.33" y="80.52" width="4.27" height="58.96" rx="2.13" fill="#8fb4d5" opacity="0.647"/></g>
</svg>