<svg xmlns="http://www.w3.org/2000/svg" viewBox="0 0 1200 1200" role="img" aria-labelledby="t d">
<title id="t">Devils and Demons cover concept</title>
<desc id="d">A dark split field with mirrored crimson profiles, a gold voice-line, and the phrase speak your truth.</desc>
<defs>
  <radialGradient id="bg" cx="50%" cy="42%" r="72%"><stop offset="0" stop-color="#3b1827"/><stop offset=".52" stop-color="#160d15"/><stop offset="1" stop-color="#070609"/></radialGradient>
  <linearGradient id="voice" x1="0" y1="0" x2="1" y2="0"><stop stop-color="#e56871"/><stop offset=".5" stop-color="#d7b66f"/><stop offset="1" stop-color="#e56871"/></linearGradient>
  <filter id="grain"><feTurbulence type="fractalNoise" baseFrequency=".75" numOctaves="3" seed="19"/><feColorMatrix values="1 0 0 0 0 0 1 0 0 0 0 0 1 0 0 0 0 0 .18 0"/></filter>
</defs>
<rect width="1200" height="1200" fill="url(#bg)"/>
<rect width="1200" height="1200" filter="url(#grain)" opacity=".35"/>
<path d="M471 210c-112 68-178 172-193 307-11 100 20 163 96 211 45 29 65 76 56 143-7 55-37 104-90 148 132-11 232-73 300-186 43-72 51-158 23-258-25-89-82-149-171-180 58-18 115-65 171-142-65-31-129-45-192-43Z" fill="none" stroke="#e56871" stroke-width="18" opacity=".9"/>
<path d="M729 210c112 68 178 172 193 307 11 100-20 163-96 211-45 29-65 76-56 143 7 55 37 104 90 148-132-11-232-73-300-186-43-72-51-158-23-258 25-89 82-149 171-180-58-18-115-65-171-142 65-31 129-45 192-43Z" fill="none" stroke="#8c3f67" stroke-width="18" opacity=".92"/>
<path d="M286 608h78l31-75 54 168 51-120 54 87 42-146 58 190 48-109 42 61 40-56h150" fill="none" stroke="url(#voice)" stroke-width="16" stroke-linecap="round" stroke-linejoin="round"/>
<circle cx="600" cy="608" r="37" fill="#0d0b12" stroke="#d7b66f" stroke-width="10"/>
<path d="M600 579v58M571 608h58" stroke="#d7b66f" stroke-width="8" stroke-linecap="round"/>
<text x="80" y="150" fill="#f3eadb" font-family="Georgia,serif" font-size="116" font-weight="700" letter-spacing="5">DEVILS</text>
<text x="1110" y="1085" text-anchor="end" fill="#f3eadb" font-family="Georgia,serif" font-size="112" font-weight="700" letter-spacing="2">&amp; DEMONS</text>
<text x="600" y="1140" text-anchor="middle" fill="#d7b66f" font-family="monospace" font-size="34" letter-spacing="12">SPEAK YOUR TRUTH</text>
</svg>