<svg xmlns="http://www.w3.org/2000/svg" viewBox="0 0 1200 1200" role="img" aria-labelledby="t d"><title id="t">I Hate The Rain cover concept</title><desc id="d">Midnight blue rain lines fall around a small gold sun and a reflective surface.</desc><defs><linearGradient id="bg" x1="0" y1="0" x2="0" y2="1"><stop stop-color="#091427"/><stop offset=".72" stop-color="#182d4a"/><stop offset="1" stop-color="#06101d"/></linearGradient><filter id="grain"><feTurbulence type="fractalNoise" baseFrequency=".7" numOctaves="2" seed="9"/><feColorMatrix values="1 0 0 0 0 0 1 0 0 0 0 0 1 0 0 0 0 0 .13 0"/></filter></defs><rect width="1200" height="1200" fill="url(#bg)"/><circle cx="890" cy="280" r="90" fill="#d8b463"/><g stroke="#9bc0e1" stroke-width="7" opacity=".55"><path d="M80 120l-170 610"/><path d="M175 85l-170 610"/><path d="M270 50l-170 610"/><path d="M365 145l-170 610"/><path d="M460 110l-170 610"/><path d="M555 75l-170 610"/><path d="M650 40l-170 610"/><path d="M745 135l-170 610"/><path d="M840 100l-170 610"/><path d="M935 65l-170 610"/><path d="M1030 160l-170 610"/><path d="M1125 125l-170 610"/><path d="M1220 90l-170 610"/></g><path d="M0 820C220 760 410 930 625 850S1000 745 1200 820V1200H0Z" fill="#080d18" opacity=".9"/><g opacity=".55" fill="none" stroke="#8fb4d5" stroke-width="6"><ellipse cx="290" cy="930" rx="230" ry="34"/><ellipse cx="790" cy="1010" rx="330" ry="42"/></g><rect width="1200" height="1200" filter="url(#grain)" opacity=".32"/><text x="90" y="170" fill="#eef5fb" font-family="Georgia,serif" font-size="108" font-weight="700">I HATE</text><text x="90" y="285" fill="#eef5fb" font-family="Georgia,serif" font-size="108" font-weight="700">THE RAIN</text><text x="95" y="1120" fill="#d8b463" font-family="monospace" font-size="38" letter-spacing="9">A REFLECTION ON PETRICHOR</text></svg>